<?xml version="1.0" encoding="utf-8"?>
<!-- Generator: Adobe Illustrator 17.0.0, SVG Export Plug-In . SVG Version: 6.00 Build 0)  -->
<!DOCTYPE svg PUBLIC "-//W3C//DTD SVG 1.1//EN" "http://www.w3.org/Graphics/SVG/1.1/DTD/svg11.dtd">
<svg version="1.1" id="Layer_1" xmlns="http://www.w3.org/2000/svg" xmlns:xlink="http://www.w3.org/1999/xlink" x="0px" y="0px"
	 width="2000px" height="2000px" viewBox="0 0 2000 2000" enable-background="new 0 0 2000 2000" xml:space="preserve">
<g>
	<path d="M569.855,1095.327h-87.031l-15.777,37.662h-35.372l78.124-178.132h35.372l77.107,178.132h-36.646L569.855,1095.327z
		 M557.642,1066.063l-31.047-74.817l-31.554,74.817H557.642z"/>
	<path d="M753.49,1132.989l-30.792-52.677c-2.035,0.255-4.07,0.255-6.36,0.255h-40.209v52.423h-34.099V954.857h74.308
		c46.06,0,72.27,22.137,72.27,61.328c0,27.993-12.468,48.095-35.372,57.767l39.19,59.038H753.49z M676.128,1050.538h40.209
		c25.446,0,39.697-10.943,39.697-33.335c0-21.885-14.251-32.573-39.697-32.573h-40.209V1050.538z"/>
	<path d="M904.803,984.121c-33.589,0-59.802,25.956-59.802,59.038c0,33.337,26.213,59.292,59.802,59.292
		c17.051,0,35.117-7.889,48.35-20.866l20.105,22.394c-18.322,18.576-44.534,30.535-70.235,30.535
		c-52.423,0-92.884-39.443-92.884-90.847c0-50.894,40.971-89.83,94.155-89.83c25.448,0,51.404,10.943,68.709,28.5l-19.85,24.939
		C940.43,993.028,922.363,984.121,904.803,984.121z"/>
	<path d="M1033.473,954.857v76.088h88.814v-76.088h34.099v178.132h-34.099v-72.27h-88.814v72.27h-34.099V954.857H1033.473z"/>
	<path d="M1213.798,954.857l40.969,140.215l40.719-140.215h33.592l40.968,140.215l40.464-140.215h35.115l-59.038,178.132h-35.37
		l-39.7-133.6l-40.209,133.6h-35.115l-59.038-178.132H1213.798z"/>
	<path d="M1566.395,1095.327h-87.031l-15.777,37.662h-35.375l78.126-178.132h35.37l77.107,178.132h-36.643L1566.395,1095.327z
		 M1554.179,1066.063l-31.045-74.817l-31.554,74.817H1554.179z"/>
	<path d="M1703.972,1074.713v58.276h-34.101v-57.003l-66.419-121.13h34.61l48.605,83.722l47.84-83.722h34.356L1703.972,1074.713z"/>
</g>
<g>
	<defs>
		<path id="XMLID_1_" d="M677.455,674.503c-19.519-15.827-44.587-27.597-70.184-22.893c-13.034,2.395-23.459,10.06-33.99,17.406
			c-35.829,24.992-65.763,59.413-96.201,90.202c-3.036,3.071-6.048,6.15-9.043,9.236c12.368-11.54,26.319-22.468,40.78-29.948
			c0.154-0.094,0.304-0.195,0.458-0.288c3.72-2.233,7.744-3.896,11.889-5.163c0.155-0.056,0.309-0.122,0.464-0.177
			c7.855-2.788,15.963-3.311,24.012-2.27c19.058,1.9,37.112,11.989,51.995,23.715c7.765,6.118,15.019,12.875,21.905,20.049
			c0.666,0.66,1.264,1.258,1.736,1.733c-0.472-0.475-1.07-1.073-1.736-1.733c35.454,36.941,60.012,86.221,80.979,131.293
			c-1.023-2.2,132.617,0.748,132.269,0C807.498,851.299,724.966,713.027,677.455,674.503z"/>
	</defs>
	<use xlink:href="#XMLID_1_"  overflow="visible" fill="#2D7493"/>
	<clipPath id="XMLID_3_">
		<use xlink:href="#XMLID_1_"  overflow="visible"/>
	</clipPath>
	<g clip-path="url(#XMLID_3_)">
		<g>
			<g>
				<g opacity="0.07">
					<g>
						<polygon fill="#FFFFFF" points="632.326,1015.893 612.755,987.274 610.994,988.492 630.083,1016.39 622.037,1056.439 
							657.893,1108.862 654.759,1125.75 685.904,1171.268 730.964,1179.653 731.344,1177.622 687.142,1169.303 657.028,1125.276 
							660.194,1108.392 624.317,1055.998 						"/>
					</g>
					<g>
						<polygon fill="#FFFFFF" points="775.245,1146.759 742.437,1098.812 685.671,1088.138 662.194,1053.808 672.306,999.781 
							596.437,888.882 552.793,880.7 527.633,843.967 525.875,845.171 551.559,882.648 595.195,890.875 670.049,1000.274 
							659.921,1054.299 684.424,1090.069 741.172,1100.755 773.486,1147.962 						"/>
					</g>
					<g>
						<polygon fill="#FFFFFF" points="624.398,876.03 572.941,800.79 550.605,796.618 513.374,742.184 511.621,743.436 
							549.341,798.561 571.659,802.745 622.128,876.506 607.853,952.648 655.126,1021.716 645.163,1074.697 702.348,1158.233 
							725.994,1162.666 735.483,1176.534 737.257,1175.333 727.26,1160.722 703.613,1156.289 647.453,1074.194 657.396,1021.242 
							610.108,952.171 						"/>
					</g>
					<g>
						<polygon fill="#FFFFFF" points="838.187,960.971 817.197,930.316 764.14,920.336 736.729,880.275 586.926,852.207 
							564.613,819.597 562.824,820.794 585.658,854.165 735.454,882.185 762.878,922.265 815.938,932.228 836.428,962.175 						"/>
					</g>
					<g>
						<polygon fill="#FFFFFF" points="765.427,1066.287 734.84,1021.586 704.569,1015.911 637.354,917.679 633.822,920.083 
							702.017,1019.746 732.279,1025.467 760.907,1067.304 753.691,1105.71 780.886,1145.493 784.406,1143.072 758.207,1104.803 
													"/>
					</g>
					<g>
						<polygon fill="#FFFFFF" points="744.954,965.615 696.336,894.62 694.599,895.796 742.724,966.13 735.732,1003.344 
							788.31,1080.186 783.797,1104.259 804.104,1133.918 805.863,1132.714 786.067,1103.783 790.605,1079.745 738.01,1002.823 
													"/>
					</g>
					<g>
						<polygon fill="#FFFFFF" points="812.12,993.724 790.594,962.304 677.38,941.111 647.591,897.634 657.819,843.328 
							585.469,737.592 591.138,707.35 573.724,681.9 570.189,684.319 586.599,708.302 580.969,738.581 653.28,844.278 
							643.079,898.605 674.819,944.992 788.052,966.173 807.562,994.687 802.984,1018.939 856.523,1097.146 860.071,1094.744 
							807.567,1018.011 						"/>
					</g>
					<g>
						<polygon fill="#FFFFFF" points="775.819,958.934 696.399,842.865 606.654,826.04 564.417,764.332 560.89,766.799 
							604.09,829.937 693.872,846.738 771.276,959.82 763.409,1001.785 835.959,1107.797 839.482,1105.36 767.969,1000.806 						
							"/>
					</g>
					<g>
						<polygon fill="#FFFFFF" points="621.52,706.789 594.665,667.559 592.885,668.79 619.233,707.276 610.935,751.452 
							662.559,826.898 664.336,825.683 613.205,750.977 						"/>
					</g>
					<g>
						<polygon fill="#FFFFFF" points="931.727,1004.755 839.342,869.759 774.883,857.642 727.712,788.703 682.112,780.171 
							663.384,752.783 661.615,754.048 680.812,782.124 726.426,790.676 773.584,859.594 838.019,871.674 929.427,1005.225 
							921.83,1045.912 927.709,1054.504 929.468,1053.302 924.097,1045.452 						"/>
					</g>
					<g>
						<polygon fill="#FFFFFF" points="963.534,950.15 885.655,836.312 865.81,832.592 823.474,770.739 687.612,745.268 
							613.128,636.414 618.251,609.089 616.129,608.691 610.838,636.917 686.304,747.188 822.242,772.673 864.548,834.52 
							884.395,838.226 961.249,950.621 958.458,965.506 988.934,1010.044 990.728,1008.816 960.774,965.038 						"/>
					</g>
					<g>
						<polygon fill="#FFFFFF" points="749.263,797.485 685.36,704.093 683.602,705.296 747.021,797.98 736.186,855.523 
							820.052,978.051 807.777,1043.523 848.749,1103.384 850.507,1102.18 810.032,1043.046 822.34,977.563 738.52,855.043 						
							"/>
					</g>
					<g>
						<path fill="#FFFFFF" d="M614.27,991.412c1.961-1.354,2.487-3.99,1.15-5.962c-1.356-1.961-4.011-2.459-5.984-1.122
							c-1.945,1.357-2.425,4.002-1.074,5.977C609.69,992.245,612.316,992.737,614.27,991.412z"/>
					</g>
					<g>
						<path fill="#FFFFFF" d="M529.466,847.93c1.982-1.303,2.486-3.99,1.125-5.999c-1.336-1.894-4.002-2.425-5.944-1.084
							c-1.921,1.315-2.467,3.978-1.11,5.923C524.858,848.741,527.545,849.245,529.466,847.93z"/>
					</g>
					<g>
						<path fill="#FFFFFF" d="M567.448,823.684c1.921-1.315,2.422-3.986,1.047-5.919c-1.303-1.984-3.974-2.485-5.927-1.174
							c-1.959,1.354-2.463,4.041-1.149,5.963C562.786,824.531,565.473,825.035,567.448,823.684z"/>
					</g>
					<g>
						<path fill="#FFFFFF" d="M596.604,672.3c1.924-1.33,2.428-4.017,1.113-5.938c-1.359-1.945-4.044-2.449-5.972-1.183
							c-1.948,1.373-2.452,4.06-1.079,6.008C591.984,673.172,594.633,673.621,596.604,672.3z"/>
					</g>
					<g>
						<path fill="#FFFFFF" d="M665.835,829.818c1.982-1.303,2.486-3.989,1.161-5.944c-1.349-1.991-4.028-2.446-5.968-1.119
							c-1.961,1.354-2.523,4.014-1.153,5.978C661.218,830.676,663.905,831.18,665.835,829.818z"/>
					</g>
					<g>
						<path fill="#FFFFFF" d="M665.026,757.769c1.946-1.359,2.438-3.983,1.113-5.939c-1.357-1.945-3.983-2.438-5.939-1.113
							c-1.982,1.303-2.486,3.99-1.13,5.951C660.406,758.64,663.056,759.09,665.026,757.769z"/>
					</g>
					<g>
						<path fill="#FFFFFF" d="M690.648,749.724c1.964-1.29,2.428-4.016,1.113-5.937c-1.316-1.923-3.969-2.435-5.923-1.11
							c-1.961,1.354-2.462,4.026-1.122,5.984C686.029,750.598,688.714,751.101,690.648,749.724z"/>
					</g>
					<g>
						<path fill="#FFFFFF" d="M764.619,924.187c1.97-1.32,2.425-4,1.101-5.955c-1.315-1.921-3.968-2.435-5.908-1.108
							c-1.976,1.351-2.492,4.02-1.165,5.96C759.99,925.026,762.677,925.53,764.619,924.187z"/>
					</g>
					<g>
						<path fill="#FFFFFF" d="M738.302,1007.081c1.924-1.33,2.428-4.017,1.116-5.954c-1.355-1.96-4.042-2.463-5.969-1.119
							c-1.97,1.322-2.425,4.002-1.101,5.957C733.691,1007.908,736.329,1008.418,738.302,1007.081z"/>
					</g>
					<g>
						<path fill="#FFFFFF" d="M598.213,893.401c1.977-1.351,2.486-3.99,1.119-5.968c-1.312-1.937-3.97-2.419-5.931-1.065
							c-1.937,1.312-2.448,3.951-1.11,5.923C593.612,894.262,596.292,894.717,598.213,893.401z"/>
					</g>
					<g>
						<path fill="#FFFFFF" d="M697.49,899.419c1.93-1.36,2.489-4.004,1.146-5.947c-1.355-1.961-4.01-2.459-5.971-1.105
							c-1.943,1.343-2.441,3.999-1.116,5.954C692.892,900.264,695.544,900.698,697.49,899.419z"/>
					</g>
					<g>
						<path fill="#FFFFFF" d="M776.765,862.687c1.945-1.357,2.489-4.004,1.134-5.965c-1.33-1.924-3.95-2.448-5.944-1.082
							c-1.949,1.293-2.453,3.98-1.138,5.901C772.169,863.517,774.844,864.004,776.765,862.687z"/>
					</g>
					<g>
						<path fill="#FFFFFF" d="M840.202,874.865c1.994-1.364,2.464-4.041,1.149-5.962c-1.367-1.98-4.005-2.489-5.999-1.125
							c-1.921,1.315-2.425,4.002-1.083,5.944C835.594,875.676,838.281,876.18,840.202,874.865z"/>
					</g>
					<g>
						<path fill="#FFFFFF" d="M619.3,611.34c1.972-1.337,2.428-4.017,1.113-5.938c-1.327-1.94-3.99-2.486-5.936-1.129
							c-1.955,1.324-2.459,4.011-1.122,5.984C614.67,612.179,617.357,612.682,619.3,611.34z"/>
					</g>
					<g>
						<path fill="#FFFFFF" d="M687.016,709.001c1.921-1.315,2.425-4.001,1.11-5.922c-1.353-1.976-3.99-2.486-5.999-1.125
							c-1.921,1.315-2.425,4.001-1.084,5.944C682.357,709.835,685.042,710.339,687.016,709.001z"/>
					</g>
					<g>
						<path fill="#FFFFFF" d="M837.247,963.37c1.994-1.364,2.425-4.002,1.083-5.944c-1.352-1.975-3.929-2.474-5.923-1.11
							c-1.922,1.316-2.463,3.948-1.111,5.924C832.624,964.178,835.31,964.682,837.247,963.37z"/>
					</g>
					<g>
						<path fill="#FFFFFF" d="M787.408,1107.923c1.97-1.322,2.407-3.989,1.052-5.95c-1.312-1.937-3.932-2.46-5.877-1.102
							c-1.967,1.306-2.471,3.993-1.141,5.917C782.794,1108.763,785.466,1109.264,787.408,1107.923z"/>
					</g>
					<g>
						<path fill="#FFFFFF" d="M739.805,858.808c1.96-1.354,2.477-4.023,1.146-5.947c-1.336-1.974-4.023-2.478-5.969-1.119
							c-1.97,1.322-2.422,3.986-1.101,5.955C735.209,859.638,737.85,860.133,739.805,858.808z"/>
					</g>
					<g>
						<path fill="#FFFFFF" d="M611.404,955.969c1.957-1.34,2.46-4.026,1.133-5.966c-1.354-1.961-4.026-2.462-5.984-1.122
							c-1.955,1.324-2.428,4.016-1.082,5.944C606.777,956.793,609.448,957.293,611.404,955.969z"/>
					</g>
					<g>
						<path fill="#FFFFFF" d="M626.22,1060.005c1.94-1.327,2.411-4.004,1.099-5.941c-1.356-1.96-4.024-2.476-5.964-1.149
							c-1.957,1.34-2.46,4.026-1.119,5.968C621.573,1060.857,624.26,1061.361,626.22,1060.005z"/>
					</g>
					<g>
						<path fill="#FFFFFF" d="M658.303,1129.18c1.937-1.312,2.422-3.986,1.086-5.958c-1.312-1.937-3.986-2.422-5.923-1.11
							c-1.976,1.351-2.477,4.023-1.162,5.944C653.659,1130.016,656.346,1130.52,658.303,1129.18z"/>
					</g>
					<g>
						<path fill="#FFFFFF" d="M688.868,1173.831c1.922-1.315,2.417-3.955,1.08-5.929c-1.339-1.958-3.98-2.453-5.938-1.113
							c-1.93,1.361-2.456,3.996-1.129,5.936C684.221,1174.683,686.877,1175.181,688.868,1173.831z"/>
					</g>
					<g>
						<path fill="#FFFFFF" d="M705.05,1161.521c1.943-1.343,2.449-4.044,1.122-5.984c-1.352-1.977-4.044-2.449-5.984-1.122
							c-1.952,1.309-2.407,3.989-1.101,5.955C700.445,1162.317,703.077,1162.857,705.05,1161.521z"/>
					</g>
					<g>
						<path fill="#FFFFFF" d="M687.431,1092.151c1.93-1.361,2.431-4.033,1.086-5.96c-1.337-1.972-3.963-2.464-5.938-1.113
							c-1.943,1.343-2.468,3.977-1.131,5.951C682.799,1093.004,685.461,1093.472,687.431,1092.151z"/>
					</g>
					<g>
						<path fill="#FFFFFF" d="M673.59,1003.561c1.961-1.354,2.459-4.011,1.146-5.947c-1.354-1.961-4.007-2.474-5.984-1.122
							c-1.921,1.315-2.425,4-1.1,5.956C668.994,1004.39,671.653,1004.872,673.59,1003.561z"/>
					</g>
					<g>
						<path fill="#FFFFFF" d="M515.542,747.221c1.937-1.312,2.422-3.986,1.113-5.938c-1.334-1.988-4.038-2.48-5.964-1.15
							c-1.975,1.353-2.458,4.012-1.119,5.97C510.886,748.039,513.563,748.588,515.542,747.221z"/>
					</g>
					<g>
						<path fill="#FFFFFF" d="M566.276,770.859c2.796-1.94,3.489-5.713,1.585-8.457c-1.871-2.752-5.625-3.456-8.417-1.546
							c-2.773,1.898-3.496,5.665-1.626,8.417C559.728,772.065,563.538,772.732,566.276,770.859z"/>
					</g>
					<g>
						<path fill="#FFFFFF" d="M639.379,924.159c2.755-1.886,3.462-5.657,1.596-8.424c-1.883-2.771-5.684-3.483-8.454-1.601
							c-2.722,1.876-3.419,5.681-1.547,8.417C632.871,925.324,636.624,926.044,639.379,924.159z"/>
					</g>
					<g>
						<path fill="#FFFFFF" d="M707.325,1022.953c2.758-1.9,3.459-5.639,1.552-8.447c-1.876-2.722-5.628-3.442-8.399-1.558
							c-2.746,1.919-3.48,5.668-1.595,8.423C700.778,1024.16,704.552,1024.851,707.325,1022.953z"/>
					</g>
					<g>
						<path fill="#FFFFFF" d="M575.266,687.325c2.775-1.897,3.469-5.686,1.547-8.417c-1.885-2.755-5.63-3.521-8.39-1.605
							c-2.753,1.87-3.45,5.674-1.561,8.415C568.731,688.47,572.512,689.211,575.266,687.325z"/>
					</g>
				</g>
				<g opacity="0.2">
					<g>
						<polygon fill="#FFFFFF" points="649.529,980.262 635.057,959.093 633.753,959.986 647.896,980.635 641.93,1010.268 
							668.442,1049.054 666.11,1061.495 689.146,1095.142 722.495,1101.426 722.784,1099.884 690.107,1093.727 667.812,1061.181 
							670.153,1048.695 643.607,1009.917 						"/>
					</g>
					<g>
						<polygon fill="#FFFFFF" points="755.26,1077.024 730.991,1041.612 689.004,1033.693 671.634,1008.346 679.129,968.367 
							623.003,886.34 590.733,880.29 572.139,853.116 570.831,854.025 589.781,881.739 622.067,887.792 677.448,968.729 
							669.944,1008.677 688.053,1035.143 730.058,1043.048 753.935,1077.944 						"/>
					</g>
					<g>
						<polygon fill="#FFFFFF" points="643.698,876.85 605.591,821.179 589.089,818.085 561.544,777.889 560.266,778.724 
							588.173,819.509 604.691,822.606 642.01,877.167 631.447,933.512 666.402,984.579 659.056,1023.765 701.328,1085.542 
							718.822,1088.822 725.839,1099.097 727.147,1098.188 719.758,1087.37 702.276,1084.108 660.722,1023.398 668.079,984.23 
							633.146,933.134 						"/>
					</g>
					<g>
						<polygon fill="#FFFFFF" points="801.811,939.646 786.243,916.99 747.004,909.587 726.733,879.982 615.952,859.214 
							599.472,835.108 598.163,836.015 615.035,860.653 725.803,881.403 746.08,911.057 785.327,918.415 800.485,940.566 						"/>
					</g>
					<g>
						<polygon fill="#FFFFFF" points="748.002,1017.544 725.351,984.457 702.972,980.262 653.255,907.624 650.63,909.407 
							701.06,983.128 723.469,987.33 744.655,1018.29 739.292,1046.724 759.411,1076.126 762.021,1074.34 742.659,1046.043 						
							"/>
					</g>
					<g>
						<polygon fill="#FFFFFF" points="732.851,943.105 696.89,890.569 695.6,891.464 731.186,943.472 725.998,970.974 
							764.908,1027.839 761.559,1045.621 776.579,1067.573 777.9,1066.682 763.251,1045.275 766.588,1027.475 727.694,970.612 
													"/>
					</g>
					<g>
						<polygon fill="#FFFFFF" points="782.508,963.885 766.606,940.647 682.857,924.962 660.848,892.834 668.383,852.64 
							614.904,774.445 619.083,752.079 606.173,733.273 603.582,735.046 615.74,752.796 611.544,775.174 665.04,853.357 
							657.5,893.503 680.96,927.83 764.725,943.517 779.135,964.597 775.772,982.533 815.379,1040.398 817.977,1038.594 
							779.142,981.838 						"/>
					</g>
					<g>
						<polygon fill="#FFFFFF" points="755.667,938.138 696.952,852.307 630.533,839.855 599.328,794.232 596.699,796.03 
							628.654,842.712 695.089,855.167 752.304,938.802 746.488,969.821 800.158,1048.258 802.784,1046.475 749.858,969.126 						
							"/>
					</g>
					<g>
						<polygon fill="#FFFFFF" points="641.54,751.642 621.691,722.654 620.384,723.563 639.857,752.023 633.717,784.688 
							671.894,840.483 673.201,839.59 635.397,784.324 						"/>
					</g>
					<g>
						<polygon fill="#FFFFFF" points="870.975,972.017 802.653,872.188 754.955,863.213 720.064,812.221 686.349,805.949 
							672.495,785.699 671.177,786.575 685.403,807.367 719.125,813.689 753.991,864.644 801.69,873.619 869.276,972.395 
							863.666,1002.488 868.044,1008.807 869.319,1007.909 865.337,1002.09 						"/>
					</g>
					<g>
						<polygon fill="#FFFFFF" points="894.519,931.648 836.904,847.448 822.25,844.7 790.943,798.946 690.415,780.132 
							635.356,699.664 639.148,679.438 637.575,679.143 633.669,699.981 689.484,781.553 789.977,800.393 821.286,846.131 
							835.959,848.866 892.832,931.965 890.768,942.971 913.315,975.94 914.602,975.06 892.455,942.654 						"/>
					</g>
					<g>
						<polygon fill="#FFFFFF" points="736.034,818.739 688.765,749.656 687.463,750.535 734.369,819.107 726.375,861.664 
							788.377,952.298 779.305,1000.689 809.62,1044.992 810.907,1044.11 780.965,1000.351 790.101,951.956 728.05,861.33 						"/>
					</g>
					<g>
						<path fill="#FFFFFF" d="M636.192,962.148c1.416-0.982,1.846-2.94,0.824-4.396c-0.952-1.412-2.962-1.819-4.397-0.824
							c-1.465,0.989-1.789,2.967-0.808,4.399C632.799,962.792,634.743,963.126,636.192,962.148z"/>
					</g>
					<g>
						<path fill="#FFFFFF" d="M573.472,856.038c1.463-0.975,1.822-2.977,0.84-4.394c-0.991-1.466-2.977-1.822-4.413-0.827
							c-1.429,0.965-1.813,2.932-0.824,4.397C570.055,856.645,572.07,857.023,573.472,856.038z"/>
					</g>
					<g>
						<path fill="#FFFFFF" d="M601.545,838.12c1.449-0.978,1.815-2.932,0.792-4.387c-0.949-1.427-2.943-1.832-4.376-0.853
							c-1.453,1.008-1.809,2.996-0.827,4.413C598.12,838.772,600.111,839.114,601.545,838.12z"/>
					</g>
					<g>
						<path fill="#FFFFFF" d="M623.104,726.159c1.447-0.976,1.835-2.959,0.846-4.424c-0.983-1.417-2.998-1.795-4.43-0.814
							c-1.451,0.992-1.792,2.983-0.813,4.414C619.714,726.787,621.668,727.153,623.104,726.159z"/>
					</g>
					<g>
						<path fill="#FFFFFF" d="M674.346,842.666c1.42-0.999,1.806-2.98,0.83-4.427c-1.007-1.454-2.967-1.789-4.4-0.81
							c-1.466,0.991-1.849,2.956-0.857,4.407C670.926,843.289,672.896,843.658,674.346,842.666z"/>
					</g>
					<g>
						<path fill="#FFFFFF" d="M673.72,789.359c1.481-0.988,1.799-2.935,0.807-4.384c-0.991-1.466-2.945-1.832-4.366-0.819
							c-1.45,0.992-1.816,2.946-0.837,4.379C670.316,789.985,672.27,790.351,673.72,789.359z"/>
					</g>
					<g>
						<path fill="#FFFFFF" d="M692.696,783.467c1.457-1.023,1.795-2.998,0.83-4.427c-0.979-1.433-2.961-1.82-4.427-0.83
							c-1.416,0.982-1.793,2.997-0.801,4.447C689.237,784.05,691.268,784.431,692.696,783.467z"/>
					</g>
					<g>
						<path fill="#FFFFFF" d="M747.382,912.455c1.432-0.981,1.801-2.95,0.812-4.416c-0.983-1.416-2.937-1.782-4.369-0.803
							c-1.45,0.992-1.822,2.977-0.864,4.357C743.978,913.081,745.932,913.447,747.382,912.455z"/>
					</g>
					<g>
						<path fill="#FFFFFF" d="M727.908,973.765c1.465-0.989,1.81-2.994,0.815-4.43c-0.977-1.447-2.949-1.8-4.381-0.821
							c-1.465,0.989-1.832,2.943-0.821,4.382C724.495,974.358,726.473,974.76,727.908,973.765z"/>
					</g>
					<g>
						<path fill="#FFFFFF" d="M624.292,889.662c1.482-1.002,1.849-2.956,0.869-4.387c-0.992-1.45-2.946-1.816-4.427-0.83
							c-1.414,0.968-1.805,2.964-0.811,4.414C620.903,890.292,622.888,890.664,624.292,889.662z"/>
					</g>
					<g>
						<path fill="#FFFFFF" d="M697.74,894.125c1.438-1.01,1.835-2.959,0.83-4.427c-0.97-1.399-2.94-1.768-4.393-0.76
							c-1.42,0.999-1.832,2.945-0.851,4.376C694.334,894.766,696.262,895.097,697.74,894.125z"/>
					</g>
					<g>
						<path fill="#FFFFFF" d="M756.377,866.925c1.432-0.981,1.829-2.929,0.855-4.391c-0.98-1.431-2.97-1.774-4.402-0.793
							c-1.465,0.989-1.804,2.964-0.855,4.39C752.985,867.569,754.896,867.911,756.377,866.925z"/>
					</g>
					<g>
						<path fill="#FFFFFF" d="M803.305,875.959c1.45-0.992,1.84-2.988,0.824-4.396c-0.98-1.433-2.971-1.853-4.421-0.861
							c-1.432,0.981-1.789,2.967-0.781,4.421C799.907,876.555,801.873,876.94,803.305,875.959z"/>
					</g>
					<g>
						<path fill="#FFFFFF" d="M639.904,681.049c1.475-0.956,1.799-2.934,0.818-4.366c-0.989-1.465-2.943-1.832-4.376-0.852
							c-1.477,0.972-1.835,2.959-0.827,4.412C636.5,681.675,638.477,682.093,639.904,681.049z"/>
					</g>
					<g>
						<path fill="#FFFFFF" d="M689.979,753.298c1.419-0.999,1.798-2.935,0.809-4.4c-1.008-1.453-2.962-1.819-4.366-0.819
							c-1.468,1.005-1.835,2.959-0.856,4.391C686.573,753.923,688.527,754.289,689.979,753.298z"/>
					</g>
					<g>
						<path fill="#FFFFFF" d="M801.083,941.421c1.471-1.02,1.819-2.961,0.824-4.396c-0.977-1.447-2.898-1.823-4.378-0.837
							c-1.432,0.979-1.817,2.946-0.842,4.408C797.681,942.032,799.663,942.42,801.083,941.421z"/>
					</g>
					<g>
						<path fill="#FFFFFF" d="M764.242,1048.336c1.462-0.973,1.801-2.949,0.824-4.396c-1.007-1.454-2.961-1.821-4.396-0.824
							c-1.447,0.976-1.814,2.93-0.824,4.396C760.822,1048.958,762.822,1049.333,764.242,1048.336z"/>
					</g>
					<g>
						<path fill="#FFFFFF" d="M729.064,864.096c1.417-0.984,1.819-2.961,0.827-4.411c-0.98-1.433-2.995-1.811-4.445-0.819
							c-1.432,0.981-1.789,2.967-0.809,4.4C725.629,864.716,727.583,865.082,729.064,864.096z"/>
					</g>
					<g>
						<path fill="#FFFFFF" d="M634.072,935.947c1.431-0.979,1.819-2.962,0.827-4.411c-0.992-1.45-2.977-1.822-4.411-0.827
							c-1.448,0.976-1.802,2.949-0.821,4.382C630.671,936.558,632.622,936.939,634.072,935.947z"/>
					</g>
					<g>
						<path fill="#FFFFFF" d="M645.008,1012.898c1.462-0.973,1.803-2.965,0.824-4.396c-0.989-1.465-2.959-1.835-4.397-0.824
							c-1.462,0.973-1.835,2.959-0.824,4.396C641.591,1013.507,643.575,1013.879,645.008,1012.898z"/>
					</g>
					<g>
						<path fill="#FFFFFF" d="M668.742,1064.058c1.435-0.995,1.804-2.964,0.812-4.414c-0.995-1.434-2.964-1.803-4.397-0.824
							c-1.45,0.992-1.819,2.962-0.843,4.408C665.31,1064.664,667.295,1065.036,668.742,1064.058z"/>
					</g>
					<g>
						<path fill="#FFFFFF" d="M691.354,1097.104c1.447-0.976,1.792-2.983,0.824-4.396c-1.02-1.471-2.974-1.838-4.409-0.843
							c-1.447,0.976-1.817,2.946-0.797,4.417C687.919,1097.724,689.919,1098.099,691.354,1097.104z"/>
					</g>
					<g>
						<path fill="#FFFFFF" d="M703.312,1087.937c1.429-0.964,1.832-2.943,0.824-4.396c-0.965-1.43-2.962-1.819-4.427-0.83
							c-1.417,0.982-1.776,2.986-0.821,4.382C699.905,1088.578,701.859,1088.944,703.312,1087.937z"/>
					</g>
					<g>
						<path fill="#FFFFFF" d="M690.283,1036.651c1.463-0.975,1.802-2.95,0.821-4.382c-0.989-1.465-2.943-1.832-4.381-0.821
							c-1.447,0.976-1.847,2.94-0.837,4.379C686.863,1037.274,688.848,1037.646,690.283,1036.651z"/>
					</g>
					<g>
						<path fill="#FFFFFF" d="M680.051,971.114c1.478-0.971,1.844-2.924,0.864-4.357c-1.022-1.455-2.976-1.822-4.427-0.83
							c-1.413,0.968-1.801,2.95-0.812,4.416C676.657,971.774,678.634,972.097,680.051,971.114z"/>
					</g>
					<g>
						<path fill="#FFFFFF" d="M563.147,781.556c1.447-0.978,1.853-2.971,0.824-4.397c-0.979-1.431-2.936-1.782-4.417-0.796
							c-1.401,0.985-1.768,2.939-0.818,4.366C559.759,782.184,561.713,782.55,563.147,781.556z"/>
					</g>
					<g>
						<path fill="#FFFFFF" d="M600.7,799.057c2.069-1.429,2.574-4.212,1.176-6.275c-1.408-2.018-4.186-2.539-6.235-1.137
							c-2.06,1.382-2.587,4.191-1.17,6.243C595.86,799.918,598.654,800.442,600.7,799.057z"/>
					</g>
					<g>
						<path fill="#FFFFFF" d="M654.772,912.427c2.03-1.388,2.554-4.181,1.165-6.212c-1.401-2.049-4.217-2.624-6.267-1.207
							c-2.025,1.36-2.509,4.191-1.109,6.255C649.964,913.295,652.724,913.829,654.772,912.427z"/>
					</g>
					<g>
						<path fill="#FFFFFF" d="M705.006,985.51c2.051-1.416,2.572-4.194,1.17-6.243c-1.386-2.045-4.177-2.584-6.243-1.17
							c-2.033,1.405-2.554,4.183-1.162,6.198C700.17,986.358,702.979,986.884,705.006,985.51z"/>
					</g>
					<g>
						<path fill="#FFFFFF" d="M607.343,737.236c2.031-1.39,2.551-4.167,1.165-6.214c-1.405-2.032-4.177-2.584-6.225-1.182
							c-2.068,1.413-2.57,4.18-1.156,6.246C602.519,738.102,605.291,738.652,607.343,737.236z"/>
					</g>
				</g>
				<g>
					<g>
						<polygon fill="#FFFFFF" points="655.739,967.457 643.102,948.97 641.978,949.738 654.307,967.758 649.107,993.646 
							672.264,1027.49 670.223,1038.373 690.329,1067.757 719.441,1073.215 719.692,1071.872 691.149,1066.505 671.691,1038.048 
							673.731,1027.163 650.562,993.302 						"/>
					</g>
					<g>
						<polygon fill="#FFFFFF" points="748.052,1051.922 726.864,1020.975 690.196,1014.101 675.03,991.917 681.585,957.037 
							632.579,885.416 604.398,880.133 588.19,856.427 587.014,857.217 603.576,881.401 631.768,886.703 680.116,957.362 
							673.574,992.26 689.377,1015.354 726.072,1022.249 746.91,1052.703 						"/>
					</g>
					<g>
						<polygon fill="#FFFFFF" points="650.633,877.109 617.388,828.543 602.978,825.841 578.928,790.692 577.803,791.462 
							602.187,827.115 616.557,829.777 649.184,877.421 639.963,926.607 670.491,971.202 664.055,1005.361 700.965,1059.322 
							716.213,1062.197 722.355,1071.154 723.509,1070.392 717.044,1060.963 701.794,1058.104 665.539,1005.118 671.955,970.892 
							641.428,926.297 						"/>
					</g>
					<g>
						<polygon fill="#FFFFFF" points="788.699,931.957 775.157,912.146 740.856,905.716 723.153,879.865 626.438,861.701 
							612.047,840.689 610.877,841.448 625.597,862.981 722.333,881.117 740.045,907.002 774.316,913.427 787.536,932.766 						"/>
					</g>
					<g>
						<polygon fill="#FFFFFF" points="741.698,1000.006 721.93,971.096 702.403,967.451 658.993,903.99 656.694,905.551 
							700.751,969.938 720.285,973.632 738.766,1000.642 734.113,1025.464 751.664,1051.114 753.948,1049.55 737.048,1024.812 
													"/>
					</g>
					<g>
						<polygon fill="#FFFFFF" points="728.479,934.984 697.095,889.138 695.971,889.906 727.033,935.281 722.522,959.34 
							756.458,1008.936 753.548,1024.46 766.68,1043.673 767.837,1042.895 755.037,1024.188 757.95,1008.647 723.993,958.999 						
							"/>
					</g>
					<g>
						<polygon fill="#FFFFFF" points="771.822,953.113 757.94,932.844 684.85,919.141 665.621,891.059 672.222,856.015 
							625.482,787.727 629.174,768.207 617.912,751.748 615.613,753.309 626.217,768.807 622.548,788.378 669.283,856.602 
							662.704,891.697 683.198,921.628 756.289,935.33 768.906,953.751 765.97,969.412 800.538,1019.933 802.807,1018.368 
							768.911,968.812 						"/>
					</g>
					<g>
						<polygon fill="#FFFFFF" points="748.443,930.652 697.145,855.741 639.183,844.875 611.927,805.001 609.596,806.555 
							637.535,847.347 695.497,858.214 745.489,931.236 740.382,958.311 787.245,1026.781 789.516,1025.2 743.341,957.696 						"/>
					</g>
					<g>
						<polygon fill="#FFFFFF" points="648.768,767.868 631.392,742.471 630.259,743.286 647.304,768.178 641.934,796.658 
							675.278,845.368 676.416,844.603 643.425,796.368 						"/>
					</g>
					<g>
						<polygon fill="#FFFFFF" points="849.055,960.228 789.422,873.057 747.793,865.253 717.328,820.747 687.881,815.226 
							675.784,797.569 674.655,798.368 687.048,816.462 716.526,821.988 746.977,866.49 788.621,874.297 847.649,960.565 
							842.696,986.816 846.492,992.362 847.667,991.571 844.158,986.52 						"/>
					</g>
					<g>
						<polygon fill="#FFFFFF" points="869.667,924.966 819.337,851.47 806.545,849.071 779.192,809.117 691.432,792.664 
							643.355,722.402 646.666,704.74 645.289,704.497 641.875,722.71 690.63,793.904 778.391,810.356 805.712,850.307 
							818.508,852.69 868.159,925.253 866.356,934.87 886.056,963.641 887.18,962.872 867.83,934.593 						"/>
					</g>
					<g>
						<polygon fill="#FFFFFF" points="731.28,826.396 690.014,766.088 688.865,766.9 729.81,826.737 722.853,863.847 
							776.946,942.98 769.061,985.289 795.505,1023.936 796.611,1023.179 770.492,984.988 778.44,942.676 724.311,863.569 						"/>
					</g>
					<g>
						<path fill="#FFFFFF" d="M644.104,951.638c1.238-0.873,1.591-2.593,0.724-3.861c-0.874-1.24-2.6-1.563-3.863-0.724
							c-1.257,0.886-1.562,2.599-0.694,3.867C641.143,952.174,642.824,952.473,644.104,951.638z"/>
					</g>
					<g>
						<path fill="#FFFFFF" d="M589.341,858.964c1.269-0.867,1.59-2.577,0.75-3.825c-0.869-1.268-2.609-1.594-3.877-0.727
							c-1.251,0.856-1.572,2.566-0.721,3.847C586.359,859.528,588.118,859.842,589.341,858.964z"/>
					</g>
					<g>
						<path fill="#FFFFFF" d="M613.843,843.331c1.268-0.867,1.562-2.599,0.738-3.858c-0.889-1.241-2.614-1.565-3.847-0.721
							c-1.268,0.867-1.628,2.617-0.727,3.877C610.847,843.876,612.573,844.2,613.843,843.331z"/>
					</g>
					<g>
						<path fill="#FFFFFF" d="M632.665,745.538c1.23-0.828,1.6-2.545,0.718-3.831c-0.859-1.235-2.568-1.556-3.855-0.754
							c-1.275,0.898-1.556,2.647-0.7,3.898C629.699,746.105,631.394,746.423,632.665,745.538z"/>
					</g>
					<g>
						<path fill="#FFFFFF" d="M677.415,847.287c1.268-0.869,1.594-2.609,0.721-3.847c-0.869-1.27-2.59-1.609-3.863-0.724
							c-1.278,0.835-1.59,2.577-0.721,3.847C674.421,847.831,676.145,848.154,677.415,847.287z"/>
					</g>
					<g>
						<path fill="#FFFFFF" d="M676.846,800.753c1.291-0.896,1.593-2.593,0.737-3.844c-0.87-1.254-2.568-1.556-3.847-0.721
							c-1.223,0.878-1.636,2.57-0.724,3.863C673.87,801.286,675.581,801.606,676.846,800.753z"/>
					</g>
					<g>
						<path fill="#FFFFFF" d="M693.419,795.548c1.23-0.828,1.577-2.596,0.712-3.8c-0.835-1.279-2.574-1.606-3.813-0.731
							c-1.267,0.853-1.593,2.593-0.724,3.863C690.425,796.093,692.165,796.419,693.419,795.548z"/>
					</g>
					<g>
						<path fill="#FFFFFF" d="M741.193,908.213c1.238-0.873,1.556-2.568,0.688-3.837c-0.868-1.268-2.553-1.553-3.816-0.715
							c-1.254,0.872-1.602,2.56-0.749,3.826C738.184,908.755,739.924,909.081,741.193,908.213z"/>
					</g>
					<g>
						<path fill="#FFFFFF" d="M724.172,961.751c1.269-0.869,1.595-2.609,0.721-3.847c-0.837-1.264-2.578-1.59-3.847-0.721
							c-1.254,0.872-1.571,2.566-0.703,3.834C721.211,962.287,722.936,962.61,724.172,961.751z"/>
					</g>
					<g>
						<path fill="#FFFFFF" d="M633.737,888.336c1.241-0.889,1.559-2.583,0.721-3.847c-0.867-1.268-2.581-1.573-3.834-0.703
							c-1.251,0.856-1.583,2.548-0.745,3.812C630.746,888.866,632.486,889.192,633.737,888.336z"/>
					</g>
					<g>
						<path fill="#FFFFFF" d="M697.827,892.23c1.269-0.869,1.595-2.609,0.724-3.863c-0.871-1.254-2.569-1.556-3.837-0.687
							c-1.254,0.87-1.603,2.559-0.734,3.828C694.849,892.777,696.561,893.083,697.827,892.23z"/>
					</g>
					<g>
						<path fill="#FFFFFF" d="M749.021,868.484c1.263-0.838,1.589-2.577,0.721-3.847c-0.828-1.23-2.568-1.556-3.822-0.684
							c-1.233,0.843-1.592,2.593-0.776,3.804C746.042,869.033,747.8,869.346,749.021,868.484z"/>
					</g>
					<g>
						<path fill="#FFFFFF" d="M790.02,876.36c1.269-0.867,1.564-2.613,0.724-3.861c-0.853-1.267-2.593-1.593-3.862-0.724
							c-1.238,0.873-1.565,2.614-0.724,3.861C787.026,876.905,788.766,877.232,790.02,876.36z"/>
					</g>
					<g>
						<path fill="#FFFFFF" d="M647.339,706.209c1.266-0.852,1.593-2.593,0.721-3.845c-0.877-1.304-2.593-1.593-3.847-0.721
							c-1.266,0.852-1.593,2.593-0.721,3.845C644.317,706.733,646.119,707.071,647.339,706.209z"/>
					</g>
					<g>
						<path fill="#FFFFFF" d="M691.076,769.274c1.254-0.872,1.54-2.572,0.721-3.847c-0.869-1.27-2.62-1.535-3.834-0.703
							c-1.269,0.867-1.603,2.559-0.765,3.823C688.069,769.801,689.809,770.127,691.076,769.274z"/>
					</g>
					<g>
						<path fill="#FFFFFF" d="M788.072,933.53c1.269-0.867,1.613-2.621,0.721-3.847c-0.868-1.268-2.554-1.633-3.847-0.721
							c-1.245,0.825-1.556,2.569-0.7,3.82C785.114,934.05,786.854,934.376,788.072,933.53z"/>
					</g>
					<g>
						<path fill="#FFFFFF" d="M755.907,1026.878c1.269-0.867,1.559-2.583,0.672-3.84c-0.838-1.264-2.56-1.601-3.81-0.747
							c-1.266,0.853-1.593,2.595-0.724,3.863C752.913,1027.424,754.641,1027.732,755.907,1026.878z"/>
					</g>
					<g>
						<path fill="#FFFFFF" d="M725.175,865.957c1.214-0.831,1.602-2.559,0.71-3.784c-0.868-1.27-2.596-1.577-3.847-0.721
							c-1.242,0.809-1.574,2.58-0.706,3.85C722.173,866.548,723.888,866.839,725.175,865.957z"/>
					</g>
					<g>
						<path fill="#FFFFFF" d="M642.249,928.742c1.268-0.869,1.577-2.596,0.721-3.847c-0.853-1.267-2.596-1.577-3.847-0.721
							c-1.267,0.853-1.574,2.58-0.718,3.831C639.272,929.275,640.995,929.612,642.249,928.742z"/>
					</g>
					<g>
						<path fill="#FFFFFF" d="M651.79,995.935c1.27-0.869,1.578-2.597,0.724-3.863c-0.873-1.238-2.577-1.59-3.847-0.721
							c-1.268,0.867-1.594,2.609-0.724,3.863C648.812,996.482,650.552,996.808,651.79,995.935z"/>
					</g>
					<g>
						<path fill="#FFFFFF" d="M672.51,1040.588c1.254-0.872,1.577-2.596,0.718-3.831c-0.856-1.251-2.557-1.617-3.831-0.718
							c-1.267,0.853-1.59,2.577-0.765,3.823C669.507,1041.099,671.247,1041.426,672.51,1040.588z"/>
					</g>
					<g>
						<path fill="#FFFFFF" d="M692.256,1069.447c1.269-0.869,1.577-2.596,0.703-3.834c-0.853-1.267-2.554-1.633-3.829-0.734
							c-1.26,0.822-1.589,2.577-0.721,3.847C689.278,1069.994,690.988,1070.314,692.256,1069.447z"/>
					</g>
					<g>
						<path fill="#FFFFFF" d="M702.715,1061.451c1.25-0.854,1.574-2.58,0.721-3.845c-0.868-1.27-2.599-1.563-3.844-0.737
							c-1.272,0.883-1.595,2.609-0.724,3.861C699.739,1061.984,701.443,1062.336,702.715,1061.451z"/>
					</g>
					<g>
						<path fill="#FFFFFF" d="M691.339,1016.686c1.251-0.856,1.562-2.599,0.693-3.868c-0.843-1.233-2.562-1.587-3.831-0.718
							c-1.269,0.869-1.611,2.606-0.724,3.863C688.346,1017.23,690.071,1017.553,691.339,1016.686z"/>
					</g>
					<g>
						<path fill="#FFFFFF" d="M682.378,959.463c1.315-0.86,1.633-2.555,0.764-3.824c-0.867-1.268-2.59-1.607-3.861-0.724
							c-1.233,0.845-1.559,2.585-0.719,3.833C679.43,960.015,681.143,960.32,682.378,959.463z"/>
					</g>
					<g>
						<path fill="#FFFFFF" d="M580.325,793.941c1.238-0.875,1.565-2.614,0.727-3.878c-0.875-1.238-2.572-1.54-3.84-0.671
							c-1.269,0.867-1.617,2.556-0.747,3.81C577.335,794.471,579.059,794.794,580.325,793.941z"/>
					</g>
					<g>
						<path fill="#FFFFFF" d="M613.11,809.22c1.795-1.227,2.223-3.675,1.012-5.482c-1.203-1.759-3.627-2.229-5.436-1.005
							c-1.814,1.241-2.237,3.674-1.035,5.432C608.903,809.996,611.318,810.432,613.11,809.22z"/>
					</g>
					<g>
						<path fill="#FFFFFF" d="M660.311,908.172c1.805-1.194,2.234-3.659,1.026-5.385c-1.228-1.795-3.666-2.284-5.459-1.056
							c-1.759,1.203-2.22,3.661-0.989,5.441C656.085,908.961,658.529,909.419,660.311,908.172z"/>
					</g>
					<g>
						<path fill="#FFFFFF" d="M704.193,971.975c1.761-1.218,2.229-3.628,1.013-5.404c-1.258-1.801-3.655-2.25-5.434-1.019
							c-1.777,1.215-2.277,3.633-1.034,5.431C699.951,972.775,702.384,973.199,704.193,971.975z"/>
					</g>
					<g>
						<path fill="#FFFFFF" d="M618.913,755.255c1.776-1.216,2.221-3.676,1.019-5.435c-1.245-1.782-3.66-2.219-5.447-1.036
							c-1.769,1.264-2.216,3.644-1.006,5.452C614.682,755.994,617.139,756.455,618.913,755.255z"/>
					</g>
				</g>
			</g>
			<g>
				<path fill="#FFFFFF" d="M696.083,1064.206c2.013,3,1.239,7.043-1.7,9.068c-2.957,2.036-7.036,1.288-9.068-1.7
					c-2.007-2.952-1.26-7.016,1.694-9.037C689.968,1060.5,694.062,1061.251,696.083,1064.206z M686.253,1070.96
					c1.687,2.465,5.045,3.095,7.508,1.422c2.435-1.692,3.067-5.066,1.393-7.512c-1.687-2.465-5.03-3.092-7.495-1.405
					C685.195,1065.136,684.566,1068.495,686.253,1070.96z"/>
			</g>
			<g>
				<path fill="#FFFFFF" d="M676.096,1035.034c2.04,2.942,1.258,7.03-1.697,9.052c-2.97,2.019-7.03,1.258-9.052-1.697
					c-2.022-2.955-1.255-7.046,1.697-9.052C669.998,1031.315,674.059,1032.076,676.096,1035.034z M666.26,1041.724
					c1.685,2.481,5.056,3.127,7.503,1.453c2.465-1.687,3.08-5.049,1.39-7.498c-1.669-2.478-5.042-3.11-7.496-1.405
					C665.226,1035.951,664.596,1039.31,666.26,1041.724z"/>
			</g>
			<g>
				<path fill="#FFFFFF" d="M655.479,990.669c2.022,2.955,1.258,7.03-1.697,9.052s-7.046,1.255-9.052-1.697
					c-2.022-2.955-1.258-7.03,1.697-9.052C649.366,986.947,653.457,987.714,655.479,990.669z M645.627,997.37
					c1.716,2.471,5.073,3.116,7.538,1.429s3.065-5.052,1.371-7.486c-1.65-2.49-4.993-3.117-7.51-1.408
					C644.613,991.57,643.983,994.929,645.627,997.37z"/>
			</g>
			<g>
				<path fill="#FFFFFF" d="M647.632,946.138c2.018,2.969,1.254,7.046-1.7,9.066c-2.952,2.006-7.032,1.258-9.054-1.697
					c-2.021-2.953-1.256-7.03,1.697-9.052C641.53,942.434,645.61,943.183,647.632,946.138z M637.791,952.858
					c1.719,2.455,5.039,3.124,7.504,1.438c2.467-1.686,3.081-5.047,1.394-7.514c-1.673-2.462-5.03-3.092-7.495-1.405
					C636.758,947.07,636.129,950.428,637.791,952.858z"/>
			</g>
			<g>
				<path fill="#FFFFFF" d="M695.275,1010.613c2.001,2.982,1.239,7.043-1.715,9.065c-2.97,2.018-7.03,1.256-9.052-1.697
					c-2.022-2.955-1.255-7.046,1.7-9.068C689.144,1006.904,693.22,1007.668,695.275,1010.613z M685.401,1017.343
					c1.705,2.452,5.063,3.082,7.526,1.411c2.46-1.657,3.08-5.049,1.393-7.514c-1.677-2.433-5.036-3.062-7.495-1.405
					C684.39,1011.527,683.763,1014.871,685.401,1017.343z"/>
			</g>
			<g>
				<path fill="#FFFFFF" d="M592.788,853.479c2.039,2.942,1.256,7.032-1.697,9.052c-2.955,2.022-7.032,1.258-9.052-1.697
					c-2.022-2.954-1.255-7.046,1.697-9.052C586.689,849.762,590.766,850.526,592.788,853.479z M582.966,860.188
					c1.687,2.465,5.042,3.11,7.507,1.422c2.451-1.689,3.065-5.05,1.373-7.485c-1.651-2.489-4.994-3.116-7.48-1.402
					C581.92,854.382,581.29,857.74,582.966,860.188z"/>
			</g>
			<g>
				<path fill="#FFFFFF" d="M791.588,927.505c2.064,2.979,1.285,7.052-1.67,9.074c-2.982,2.001-7.021,1.291-9.052-1.697
					c-2.022-2.955-1.285-7.052,1.685-9.071C785.518,923.807,789.593,924.571,791.588,927.505z M781.802,934.267
					c1.662,2.428,5.015,3.089,7.48,1.402c2.465-1.687,3.08-5.049,1.393-7.514c-1.675-2.447-5.033-3.076-7.495-1.405
					C780.745,928.443,780.088,931.781,781.802,934.267z"/>
			</g>
			<g>
				<path fill="#FFFFFF" d="M793.896,869.93c2.05,2.975,1.285,7.052-1.697,9.052c-2.955,2.021-7.003,1.278-9.052-1.697
					c-1.994-2.934-1.227-7.026,1.725-9.033C787.826,866.232,791.874,866.975,793.896,869.93z M784.086,876.655
					c1.687,2.465,5.042,3.11,7.508,1.422c2.465-1.687,3.052-5.069,1.393-7.512c-1.677-2.432-5.054-3.049-7.495-1.405
					C783.029,870.831,782.412,874.207,784.086,876.655z"/>
			</g>
			<g>
				<path fill="#FFFFFF" d="M680.595,794.33c2.025,2.939,1.23,7.009-1.744,9.044c-2.954,2.022-6.999,1.264-9.037-1.694
					c-2.025-2.94-1.258-7.03,1.697-9.052C674.482,790.608,678.558,791.372,680.595,794.33z M670.739,801.047
					c1.676,2.447,5.046,3.095,7.495,1.405c2.478-1.668,3.082-5.063,1.421-7.492c-1.696-2.499-5.054-3.129-7.514-1.393
					C669.692,795.256,669.065,798.6,670.739,801.047z"/>
			</g>
			<g>
				<path fill="#FFFFFF" d="M650.536,700.282c2.022,2.955,1.258,7.03-1.697,9.052c-2.955,2.022-7.03,1.258-9.052-1.697
					c-2.022-2.955-1.258-7.03,1.697-9.052C644.439,696.564,648.514,697.328,650.536,700.282z M640.687,706.97
					c1.698,2.483,5.073,3.116,7.522,1.425c2.444-1.658,3.076-5.032,1.402-7.48c-1.674-2.447-5.049-3.079-7.48-1.402
					C639.669,701.185,639.037,704.558,640.687,706.97z"/>
			</g>
			<g>
				<path fill="#FFFFFF" d="M694.547,762.892c2.05,2.977,1.283,7.067-1.672,9.089c-2.955,2.02-7.006,1.293-9.052-1.697
					c-2.022-2.955-1.283-7.067,1.672-9.089S692.551,759.974,694.547,762.892z M684.75,769.636c1.687,2.465,5.044,3.095,7.48,1.402
					c2.425-1.647,3.089-5.015,1.402-7.48c-1.657-2.461-5.066-3.068-7.48-1.402C683.688,763.843,683.051,767.153,684.75,769.636z"/>
			</g>
			<g>
				<path fill="#FFFFFF" d="M636.125,740.151c1.721,2.535,1.074,5.984-1.467,7.736c-2.519,1.724-6,1.071-7.708-1.445
					c-1.719-2.55-1.091-5.988,1.448-7.724C630.936,736.981,634.386,737.628,636.125,740.151z M627.747,745.896
					c1.423,2.1,4.278,2.635,6.365,1.193c2.089-1.44,2.638-4.293,1.176-6.352c-1.433-2.134-4.261-2.648-6.345-1.222
					C626.858,740.942,626.323,743.798,627.747,745.896z"/>
			</g>
			<g>
				<path fill="#FFFFFF" d="M583.075,788.547c1.707,2.532,1.06,5.982-1.464,7.721c-2.529,1.691-5.984,1.074-7.708-1.445
					c-1.722-2.535-1.075-5.985,1.42-7.745C577.867,785.39,581.333,786.039,583.075,788.547z M574.7,794.276
					c1.428,2.085,4.267,2.617,6.367,1.194c2.103-1.439,2.638-4.293,1.215-6.394c-1.461-2.075-4.318-2.594-6.412-1.202
					C573.797,789.319,573.259,792.189,574.7,794.276z"/>
			</g>
			<g>
				<path fill="#FFFFFF" d="M616.402,837.855c1.714,2.486,1.061,5.966-1.461,7.705c-2.516,1.71-5.982,1.06-7.713-1.43
					c-1.718-2.55-1.05-6.027,1.464-7.721C611.2,834.668,614.679,835.32,616.402,837.855z M608.045,843.573
					c1.398,2.063,4.281,2.62,6.365,1.193c2.085-1.426,2.623-4.296,1.193-6.365c-1.423-2.1-4.278-2.635-6.365-1.193
					C607.154,838.634,606.619,841.488,608.045,843.573z"/>
			</g>
			<g>
				<path fill="#FFFFFF" d="M709.807,964.115c2.744,3.99,1.717,9.471-2.271,12.2c-3.988,2.728-9.468,1.701-12.182-2.284
					c-2.729-3.989-1.701-9.469,2.287-12.197C701.611,959.117,707.109,960.131,709.807,964.115z M696.605,973.175
					c2.245,3.28,6.788,4.164,10.121,1.897c3.281-2.246,4.119-6.797,1.846-10.099c-2.257-3.3-6.791-4.15-10.078-1.875
					C695.182,965.339,694.335,969.858,696.605,973.175z"/>
			</g>
			<g>
				<path fill="#FFFFFF" d="M665.852,899.857c2.728,3.987,1.701,9.468-2.286,12.196c-3.958,2.735-9.454,1.705-12.166-2.281
					c-2.73-3.987-1.702-9.468,2.286-12.196C657.652,894.874,663.148,895.905,665.852,899.857z M652.648,908.931
					c2.241,3.297,6.776,4.147,10.087,1.907c3.317-2.27,4.136-6.809,1.882-10.123c-2.26-3.284-6.794-4.135-10.075-1.889
					C651.223,901.096,650.376,905.614,652.648,908.931z"/>
			</g>
			<g>
				<path fill="#FFFFFF" d="M618.008,800.879c2.728,3.987,1.701,9.468-2.286,12.196c-3.986,2.714-9.451,1.689-12.182-2.284
					c-2.714-3.985-1.687-9.465,2.286-12.196C609.814,795.866,615.279,796.89,618.008,800.879z M604.773,809.948
					c2.244,3.281,6.779,4.132,10.12,1.897c3.284-2.26,4.132-6.779,1.836-10.131c-2.241-3.297-6.776-4.147-10.059-1.886
					C603.371,802.085,602.521,806.62,604.773,809.948z"/>
			</g>
			<g>
				<path fill="#FFFFFF" d="M624.413,746.995c2.731,3.972,1.701,9.468-2.287,12.198c-3.97,2.715-9.469,1.7-12.198-2.287
					c-2.714-3.986-1.683-9.482,2.287-12.197C616.2,741.994,621.681,743.021,624.413,746.995z M611.197,756.036
					c2.224,3.309,6.786,4.18,10.097,1.94c3.306-2.288,4.143-6.84,1.868-10.126c-2.253-3.33-6.804-4.169-10.09-1.892
					C609.79,748.203,608.908,752.746,611.197,756.036z"/>
			</g>
		</g>
		<g>
			<g>
				<g opacity="0.07">
					<g>
						<polygon fill="#FFFFFF" points="719.829,956.006 700.256,927.402 698.498,928.604 717.589,956.488 709.541,996.553 
							745.394,1048.99 742.295,1065.854 773.404,1111.396 818.479,1119.783 818.86,1117.753 774.675,1109.422 744.544,1065.406 
							747.712,1048.509 711.823,996.096 						"/>
					</g>
					<g>
						<polygon fill="#FFFFFF" points="862.748,1086.871 829.968,1038.946 773.208,1028.241 749.71,993.938 759.841,939.899 
							683.955,828.997 640.297,820.812 615.152,784.083 613.409,785.289 639.074,822.778 682.701,830.974 757.555,940.372 
							747.437,994.43 771.945,1030.17 828.706,1040.874 860.989,1088.075 						"/>
					</g>
					<g>
						<polygon fill="#FFFFFF" points="711.899,816.158 660.445,740.902 638.125,736.733 600.907,682.303 599.14,683.552 
							636.859,738.677 659.162,742.859 709.635,816.602 695.375,892.749 742.627,961.845 732.696,1014.816 789.882,1098.353 
							813.495,1102.794 822.999,1116.665 824.76,1115.446 814.763,1100.836 791.147,1096.409 734.953,1014.322 744.912,961.372 
							697.624,892.302 						"/>
					</g>
					<g>
						<polygon fill="#FFFFFF" points="925.687,901.1 904.715,870.431 851.643,860.45 824.229,820.405 674.457,792.341 
							652.118,759.693 650.354,760.927 673.18,794.266 822.954,822.314 850.378,862.393 903.438,872.356 923.929,902.303 						"/>
					</g>
					<g>
						<polygon fill="#FFFFFF" points="852.943,1006.418 822.358,961.702 792.072,956.024 724.86,857.777 721.338,860.214 
							789.517,959.874 819.785,965.565 848.41,1007.418 841.206,1045.841 868.392,1085.591 871.906,1083.199 845.728,1044.903 
													"/>
					</g>
					<g>
						<polygon fill="#FFFFFF" points="832.457,905.728 783.842,834.718 782.114,835.927 830.23,906.227 823.238,943.442 
							875.826,1020.316 871.318,1044.36 891.62,1074.049 893.393,1072.849 873.567,1043.912 878.138,1019.865 825.528,942.939 
													"/>
					</g>
					<g>
						<polygon fill="#FFFFFF" points="899.62,933.854 878.128,902.423 764.881,881.239 735.127,837.737 745.32,783.456 
							672.973,677.705 678.639,647.479 661.246,622.001 657.69,624.447 674.13,648.435 668.47,678.709 740.795,784.409 
							730.615,838.709 762.35,885.127 875.555,906.286 895.063,934.816 890.518,959.057 944.039,1037.276 947.571,1034.874 
							895.067,958.141 						"/>
					</g>
					<g>
						<polygon fill="#FFFFFF" points="863.35,899.069 783.918,782.982 694.17,766.171 651.921,704.445 648.395,706.897 
							691.622,770.07 781.406,786.855 858.791,899.952 850.927,941.901 923.46,1047.925 927.016,1045.478 855.484,940.939 						"/>
					</g>
					<g>
						<polygon fill="#FFFFFF" points="709.021,646.917 682.198,607.678 680.387,608.902 706.748,647.408 698.439,691.565 
							750.062,767.01 751.851,765.813 700.726,691.077 						"/>
					</g>
					<g>
						<polygon fill="#FFFFFF" points="1019.226,944.884 926.861,809.874 862.398,797.773 815.215,728.817 769.627,720.302 
							750.885,692.912 749.115,694.176 768.347,722.242 813.932,730.772 861.087,799.708 925.538,811.791 1016.927,945.352 
							1009.346,986.044 1015.224,994.635 1016.984,993.432 1011.6,985.565 						"/>
					</g>
					<g>
						<polygon fill="#FFFFFF" points="1051.055,890.249 973.155,776.441 953.31,772.721 910.995,710.84 775.13,685.384 
							700.629,576.542 705.757,549.187 703.65,548.792 698.356,577.033 773.807,687.301 909.745,712.786 952.048,774.649 
							971.896,778.354 1048.752,890.735 1045.977,905.621 1076.452,950.159 1078.247,948.932 1048.28,905.136 						"/>
					</g>
					<g>
						<polygon fill="#FFFFFF" points="836.763,737.612 772.863,644.206 771.108,645.394 834.524,738.094 823.722,795.627 
							907.552,918.179 895.299,983.624 936.264,1043.514 938.023,1042.312 897.553,983.147 909.858,917.679 826.02,795.172 						
							"/>
					</g>
					<g>
						<path fill="#FFFFFF" d="M701.774,931.526c1.973-1.337,2.489-4.006,1.162-5.946c-1.337-1.972-4.023-2.476-5.999-1.125
							c-1.94,1.327-2.425,4.002-1.055,5.966C697.193,932.358,699.834,932.854,701.774,931.526z"/>
					</g>
					<g>
						<path fill="#FFFFFF" d="M616.989,788.03c1.982-1.303,2.483-3.975,1.119-5.968c-1.316-1.922-3.986-2.422-5.957-1.101
							c-1.924,1.33-2.438,3.983-1.113,5.939C612.396,788.845,615.065,789.346,616.989,788.03z"/>
					</g>
					<g>
						<path fill="#FFFFFF" d="M654.949,763.812c1.921-1.315,2.425-4.002,1.068-5.947c-1.325-1.954-3.99-2.486-5.933-1.143
							c-1.961,1.354-2.459,4.011-1.147,5.947C650.317,764.666,652.973,765.164,654.949,763.812z"/>
					</g>
					<g>
						<path fill="#FFFFFF" d="M684.109,612.397c1.923-1.314,2.424-3.986,1.108-5.908c-1.32-1.97-4.007-2.474-5.972-1.183
							c-1.933,1.376-2.434,4.047-1.058,5.98C679.491,613.27,682.165,613.755,684.109,612.397z"/>
					</g>
					<g>
						<path fill="#FFFFFF" d="M753.369,769.937c1.982-1.303,2.486-3.99,1.131-5.951c-1.337-1.972-3.999-2.439-5.972-1.103
							c-1.946,1.359-2.489,4.006-1.137,5.981C748.721,770.789,751.408,771.293,753.369,769.937z"/>
					</g>
					<g>
						<path fill="#FFFFFF" d="M752.529,697.881c1.961-1.355,2.453-3.981,1.11-5.923c-1.322-1.97-3.947-2.462-5.923-1.11
							c-1.982,1.303-2.486,3.99-1.144,5.932C747.913,698.738,750.587,699.224,752.529,697.881z"/>
					</g>
					<g>
						<path fill="#FFFFFF" d="M778.151,689.838c1.965-1.291,2.456-3.996,1.11-5.923c-1.315-1.921-3.947-2.462-5.908-1.108
							c-1.955,1.324-2.459,4.011-1.119,5.969C773.562,690.716,776.218,691.214,778.151,689.838z"/>
					</g>
					<g>
						<path fill="#FFFFFF" d="M852.135,864.319c1.988-1.334,2.428-4.017,1.116-5.954c-1.342-1.943-3.983-2.438-5.938-1.113
							c-1.976,1.353-2.477,4.024-1.147,5.948C847.493,865.14,850.18,865.643,852.135,864.319z"/>
					</g>
					<g>
						<path fill="#FFFFFF" d="M825.805,947.193c1.955-1.324,2.456-3.996,1.149-5.963c-1.376-1.933-4.047-2.433-5.999-1.125
							c-1.945,1.357-2.416,4.034-1.088,5.974C821.197,948.006,823.844,948.549,825.805,947.193z"/>
					</g>
					<g>
						<path fill="#FFFFFF" d="M685.72,833.499c1.972-1.336,2.483-3.975,1.143-5.933c-1.339-1.956-3.983-2.438-5.958-1.085
							c-1.921,1.315-2.448,3.951-1.107,5.907C681.115,834.374,683.798,834.814,685.72,833.499z"/>
					</g>
					<g>
						<path fill="#FFFFFF" d="M784.993,839.533c1.948-1.373,2.486-3.99,1.162-5.946c-1.342-1.943-4.029-2.446-5.975-1.088
							c-1.952,1.309-2.456,3.996-1.113,5.939C780.392,840.392,783.044,840.826,784.993,839.533z"/>
					</g>
					<g>
						<path fill="#FFFFFF" d="M864.271,802.785c1.97-1.322,2.483-3.975,1.149-5.962c-1.33-1.924-3.971-2.419-5.965-1.055
							c-1.918,1.299-2.422,3.986-1.107,5.907C859.7,803.652,862.35,804.1,864.271,802.785z"/>
					</g>
					<g>
						<path fill="#FFFFFF" d="M927.724,814.966c1.991-1.348,2.443-4.014,1.132-5.951c-1.349-1.991-3.99-2.486-5.984-1.122
							c-1.924,1.33-2.422,3.988-1.086,5.96C923.115,815.777,925.802,816.28,927.724,814.966z"/>
					</g>
					<g>
						<path fill="#FFFFFF" d="M706.817,551.456c1.961-1.355,2.441-3.999,1.11-5.923c-1.34-1.958-3.975-2.483-5.95-1.131
							c-1.955,1.324-2.459,4.011-1.116,5.954C702.174,552.292,704.859,552.795,706.817,551.456z"/>
					</g>
					<g>
						<path fill="#FFFFFF" d="M774.522,649.1c1.922-1.315,2.419-3.971,1.108-5.908c-1.324-1.955-3.99-2.486-5.984-1.122
							c-1.924,1.33-2.422,3.986-1.086,5.959C769.889,649.954,772.576,650.457,774.522,649.1z"/>
					</g>
					<g>
						<path fill="#FFFFFF" d="M924.747,903.5c1.994-1.366,2.425-4.002,1.101-5.957c-1.352-1.975-3.944-2.477-5.938-1.113
							c-1.922,1.315-2.435,3.968-1.107,5.907C920.139,904.311,922.826,904.814,924.747,903.5z"/>
					</g>
					<g>
						<path fill="#FFFFFF" d="M874.924,1048.053c1.961-1.354,2.422-3.986,1.07-5.963c-1.312-1.935-3.96-2.48-5.908-1.108
							c-1.937,1.313-2.438,3.985-1.123,5.906C870.3,1048.861,873.002,1049.368,874.924,1048.053z"/>
					</g>
					<g>
						<path fill="#FFFFFF" d="M827.323,798.925c1.976-1.353,2.474-4.009,1.134-5.967c-1.327-1.94-4.014-2.443-5.969-1.119
							c-1.976,1.353-2.425,4.002-1.104,5.973C822.73,799.739,825.356,800.231,827.323,798.925z"/>
					</g>
					<g>
						<path fill="#FFFFFF" d="M698.903,896.097c1.979-1.367,2.479-4.038,1.134-5.965c-1.334-1.988-3.99-2.486-5.984-1.122
							c-1.937,1.312-2.422,3.986-1.049,5.934C694.31,896.912,696.966,897.41,698.903,896.097z"/>
					</g>
					<g>
						<path fill="#FFFFFF" d="M713.721,1000.135c1.955-1.324,2.431-4.033,1.101-5.957c-1.355-1.961-4.026-2.462-5.948-1.147
							c-1.958,1.34-2.465,4.043-1.135,5.967C709.095,1000.957,711.781,1001.46,713.721,1000.135z"/>
					</g>
					<g>
						<path fill="#FFFFFF" d="M745.806,1069.294c1.94-1.327,2.425-4.002,1.119-5.968c-1.314-1.923-4.004-2.411-5.959-1.086
							c-1.94,1.327-2.443,4.014-1.128,5.936C741.159,1070.144,743.846,1070.648,745.806,1069.294z"/>
					</g>
					<g>
						<path fill="#FFFFFF" d="M776.384,1113.961c1.927-1.344,2.435-3.968,1.07-5.961c-1.315-1.921-3.986-2.422-5.908-1.108
							c-1.948,1.373-2.492,4.02-1.165,5.96C771.727,1114.779,774.414,1115.283,776.384,1113.961z"/>
					</g>
					<g>
						<path fill="#FFFFFF" d="M792.581,1101.655c1.93-1.36,2.434-4.047,1.097-6.021c-1.342-1.943-4.032-2.431-5.984-1.122
							c-1.927,1.346-2.407,3.99-1.073,5.978C787.945,1102.444,790.599,1102.958,792.581,1101.655z"/>
					</g>
					<g>
						<path fill="#FFFFFF" d="M774.932,1032.278c1.96-1.354,2.461-4.026,1.104-5.971c-1.355-1.961-3.98-2.453-5.923-1.11
							c-1.973,1.336-2.471,3.993-1.165,5.96C770.302,1033.118,772.992,1033.606,774.932,1032.278z"/>
					</g>
					<g>
						<path fill="#FFFFFF" d="M761.092,943.674c1.991-1.35,2.489-4.006,1.144-5.933c-1.337-1.974-4.008-2.475-5.984-1.122
							c-1.922,1.315-2.425,4.002-1.08,5.929C756.494,944.518,759.171,944.989,761.092,943.674z"/>
					</g>
					<g>
						<path fill="#FFFFFF" d="M603.073,687.355c1.924-1.33,2.425-4.002,1.088-5.975c-1.32-1.97-4.013-2.443-5.968-1.119
							c-1.961,1.355-2.441,3.999-1.085,5.959C598.422,688.142,601.082,688.704,603.073,687.355z"/>
					</g>
					<g>
						<path fill="#FFFFFF" d="M653.793,710.975c2.795-1.926,3.47-5.702,1.601-8.454c-1.897-2.774-5.659-3.448-8.451-1.537
							c-2.736,1.872-3.49,5.635-1.591,8.409C647.265,712.169,651.044,712.83,653.793,710.975z"/>
					</g>
					<g>
						<path fill="#FFFFFF" d="M726.897,864.274c2.758-1.9,3.459-5.64,1.577-8.411c-1.849-2.78-5.681-3.499-8.452-1.615
							c-2.722,1.875-3.419,5.679-1.518,8.437C720.386,865.456,724.142,866.16,726.897,864.274z"/>
					</g>
					<g>
						<path fill="#FFFFFF" d="M794.831,963.051c2.773-1.898,3.484-5.604,1.562-8.414c-1.855-2.749-5.641-3.459-8.399-1.558
							c-2.761,1.916-3.48,5.668-1.604,8.39C788.3,964.26,792.055,964.964,794.831,963.051z"/>
					</g>
					<g>
						<path fill="#FFFFFF" d="M662.804,627.429c2.773-1.898,3.435-5.677,1.513-8.407c-1.852-2.765-5.6-3.515-8.387-1.62
							c-2.759,1.901-3.435,5.677-1.569,8.444C656.265,628.589,660.015,629.323,662.804,627.429z"/>
					</g>
				</g>
				<g opacity="0.2">
					<g>
						<polygon fill="#FFFFFF" points="737.048,920.377 722.558,899.221 721.271,900.101 735.396,920.763 729.432,950.38 
							755.979,989.157 753.641,1001.628 776.662,1035.272 810.029,1041.544 810.29,1039.982 777.607,1033.854 755.349,1001.285 
							757.689,988.798 731.11,950.031 						"/>
					</g>
					<g>
						<polygon fill="#FFFFFF" points="842.791,1017.157 818.509,981.728 776.541,973.797 759.167,948.464 766.644,908.497 
							710.521,826.456 678.235,820.403 659.654,793.248 658.346,794.157 677.315,821.857 709.586,827.907 764.967,908.846 
							757.475,948.81 775.587,975.261 817.576,983.165 841.453,1018.06 						"/>
					</g>
					<g>
						<polygon fill="#FFFFFF" points="731.218,816.951 693.106,761.31 676.604,758.216 649.08,717.993 647.77,718.836 
							675.679,759.607 692.191,762.735 729.51,817.294 718.965,873.626 753.906,924.691 746.559,963.879 788.843,1025.674 
							806.325,1028.936 813.339,1039.226 814.681,1038.308 807.264,1027.468 789.791,1024.24 748.258,963.501 755.598,924.345 
							720.663,873.251 						"/>
					</g>
					<g>
						<polygon fill="#FFFFFF" points="889.326,879.777 873.773,857.125 834.507,849.7 814.255,820.083 703.459,799.312 
							686.987,775.238 685.685,776.116 702.54,800.751 813.306,821.517 833.602,851.157 872.834,858.512 887.991,880.664 						"/>
					</g>
					<g>
						<polygon fill="#FFFFFF" points="835.524,957.643 812.887,924.561 790.493,920.363 740.759,847.737 738.136,849.505 
							788.56,923.256 810.97,927.457 832.155,958.419 826.811,986.839 846.932,1016.227 849.527,1014.438 830.175,986.174 						"/>
					</g>
					<g>
						<polygon fill="#FFFFFF" points="820.351,883.232 784.409,830.684 783.103,831.576 818.692,883.569 813.529,911.107 
							852.414,967.937 849.065,985.719 864.11,1007.706 865.431,1006.816 850.767,985.405 854.104,967.605 815.197,910.725 						
							"/>
					</g>
					<g>
						<polygon fill="#FFFFFF" points="870.023,904.017 854.143,880.75 770.358,865.09 748.366,832.951 755.919,792.744 
							702.421,714.577 706.588,692.176 693.696,673.373 691.084,675.158 703.241,692.923 699.051,715.272 752.572,793.49 
							744.999,833.63 768.479,867.945 852.225,883.645 866.653,904.712 863.288,922.664 902.882,980.512 905.508,978.728 
							866.657,921.969 						"/>
					</g>
					<g>
						<polygon fill="#FFFFFF" points="843.189,878.237 784.458,792.405 718.054,779.956 686.844,734.364 684.221,736.131 
							716.169,782.842 782.589,795.294 839.822,878.918 834.003,909.954 887.661,988.372 890.302,986.59 837.373,909.257 						"/>
					</g>
					<g>
						<polygon fill="#FFFFFF" points="729.073,691.762 709.191,662.783 707.886,663.676 727.359,692.136 721.235,724.803 
							759.426,780.617 760.733,779.71 722.904,724.42 						"/>
					</g>
					<g>
						<polygon fill="#FFFFFF" points="958.478,912.129 890.175,812.287 842.47,803.344 807.594,752.356 773.852,746.061 
							760,725.797 758.711,726.693 772.937,747.485 806.628,753.801 841.507,804.775 889.208,813.734 956.795,912.51 
							951.173,942.585 955.544,948.935 956.834,948.039 952.84,942.203 						"/>
					</g>
					<g>
						<polygon fill="#FFFFFF" points="982.022,871.762 924.405,787.575 909.765,784.831 878.446,739.059 777.93,720.263 
							722.862,639.762 726.654,619.536 725.097,619.244 721.188,640.096 777,721.684 877.508,740.527 908.802,786.262 
							923.49,788.999 980.347,872.095 978.284,883.101 1000.821,916.038 1002.108,915.158 979.958,882.768 						"/>
					</g>
					<g>
						<polygon fill="#FFFFFF" points="823.553,758.856 776.268,689.769 774.981,690.65 821.903,759.226 813.875,801.792 
							875.911,892.415 866.836,940.822 897.141,985.093 898.428,984.211 868.468,940.465 877.607,892.054 815.553,801.443 						"/>
					</g>
					<g>
						<path fill="#FFFFFF" d="M723.71,902.265c1.429-0.965,1.865-2.953,0.84-4.394c-0.97-1.399-2.989-1.84-4.427-0.83
							c-1.432,0.981-1.792,2.983-0.809,4.4C720.318,902.909,722.26,903.257,723.71,902.265z"/>
					</g>
					<g>
						<path fill="#FFFFFF" d="M660.978,796.136c1.474-0.957,1.816-2.948,0.836-4.379c-0.989-1.465-2.964-1.805-4.396-0.824
							c-1.411,0.952-1.832,2.943-0.808,4.399C657.573,796.761,659.588,797.139,660.978,796.136z"/>
					</g>
					<g>
						<path fill="#FFFFFF" d="M689.045,778.247c1.447-0.978,1.816-2.946,0.827-4.411c-0.982-1.417-2.977-1.823-4.411-0.827
							c-1.447,0.976-1.808,2.978-0.827,4.411C685.642,778.873,687.611,779.242,689.045,778.247z"/>
					</g>
					<g>
						<path fill="#FFFFFF" d="M710.622,666.274c1.433-0.98,1.853-2.971,0.83-4.427c-0.949-1.426-2.964-1.804-4.43-0.815
							c-1.416,0.983-1.776,2.985-0.796,4.417C707.218,666.901,709.172,667.267,710.622,666.274z"/>
					</g>
					<g>
						<path fill="#FFFFFF" d="M761.864,782.781c1.435-0.995,1.804-2.964,0.842-4.408c-1.032-1.49-2.98-1.808-4.43-0.814
							c-1.435,0.995-1.847,2.94-0.839,4.393C758.432,783.387,760.401,783.756,761.864,782.781z"/>
					</g>
					<g>
						<path fill="#FFFFFF" d="M761.251,729.493c1.456-1.023,1.783-2.938,0.779-4.406c-0.989-1.465-2.943-1.832-4.335-0.813
							c-1.484,1.002-1.85,2.956-0.87,4.389C757.817,730.113,759.771,730.479,761.251,729.493z"/>
					</g>
					<g>
						<path fill="#FFFFFF" d="M780.203,723.565c1.45-0.992,1.804-2.964,0.824-4.396c-0.98-1.432-2.959-1.835-4.412-0.827
							c-1.432,0.98-1.804,2.964-0.802,4.448C776.771,724.17,778.771,724.545,780.203,723.565z"/>
					</g>
					<g>
						<path fill="#FFFFFF" d="M834.901,852.57c1.45-0.992,1.816-2.946,0.797-4.417c-0.952-1.412-2.906-1.778-4.372-0.789
							c-1.432,0.981-1.804,2.964-0.849,4.36C831.515,853.185,833.469,853.551,834.901,852.57z"/>
					</g>
					<g>
						<path fill="#FFFFFF" d="M815.424,913.896c1.471-1.019,1.81-2.994,0.836-4.457c-0.995-1.436-2.97-1.774-4.396-0.824
							c-1.471,1.02-1.838,2.974-0.842,4.408C812.013,914.473,814.004,914.895,815.424,913.896z"/>
					</g>
					<g>
						<path fill="#FFFFFF" d="M711.813,829.763c1.462-0.973,1.829-2.927,0.849-4.36c-0.992-1.45-2.946-1.816-4.424-0.846
							c-1.388,0.989-1.805,2.964-0.8,4.432C708.419,830.423,710.403,830.795,711.813,829.763z"/>
					</g>
					<g>
						<path fill="#FFFFFF" d="M785.243,834.238c1.435-0.995,1.865-2.953,0.83-4.427c-0.943-1.377-2.943-1.752-4.374-0.773
							c-1.438,1.01-1.838,2.974-0.852,4.376C781.833,834.895,783.799,835.2,785.243,834.238z"/>
					</g>
					<g>
						<path fill="#FFFFFF" d="M843.895,807.04c1.417-0.982,1.847-2.94,0.852-4.374c-0.98-1.433-2.982-1.792-4.414-0.813
							c-1.451,0.993-1.804,2.966-0.824,4.397C840.485,807.697,842.432,808.015,843.895,807.04z"/>
					</g>
					<g>
						<path fill="#FFFFFF" d="M890.805,816.088c1.466-0.991,1.856-2.987,0.83-4.427c-0.983-1.417-2.961-1.821-4.427-0.83
							c-1.432,0.979-1.755,2.957-0.775,4.389C887.422,816.685,889.373,817.067,890.805,816.088z"/>
					</g>
					<g>
						<path fill="#FFFFFF" d="M727.437,621.168c1.443-0.946,1.768-2.94,0.818-4.366c-1.022-1.456-2.976-1.822-4.393-0.839
							c-1.491,0.953-1.832,2.943-0.827,4.412C724.001,621.804,725.997,622.194,727.437,621.168z"/>
					</g>
					<g>
						<path fill="#FFFFFF" d="M777.481,693.41c1.422-1.013,1.798-2.934,0.806-4.384c-0.989-1.465-2.943-1.832-4.366-0.818
							c-1.45,0.992-1.819,2.961-0.837,4.378C774.074,694.051,776.028,694.418,777.481,693.41z"/>
					</g>
					<g>
						<path fill="#FFFFFF" d="M888.586,881.534c1.505-1.03,1.816-2.946,0.84-4.394c-0.995-1.434-2.913-1.826-4.381-0.821
							c-1.411,0.952-1.817,2.947-0.821,4.382C885.2,882.147,887.163,882.548,888.586,881.534z"/>
					</g>
					<g>
						<path fill="#FFFFFF" d="M851.76,988.452c1.463-0.975,1.799-2.935,0.821-4.382c-0.986-1.481-2.94-1.847-4.381-0.821
							c-1.472,0.941-1.841,2.91-0.821,4.382C848.356,989.078,850.325,989.447,851.76,988.452z"/>
					</g>
					<g>
						<path fill="#FFFFFF" d="M816.567,804.208c1.432-0.979,1.835-2.959,0.824-4.396c-0.974-1.463-2.989-1.84-4.445-0.817
							c-1.429,0.964-1.755,2.957-0.806,4.383C813.16,804.849,815.114,805.215,816.567,804.208z"/>
					</g>
					<g>
						<path fill="#FFFFFF" d="M721.574,876.061c1.466-0.991,1.832-2.945,0.824-4.397c-0.986-1.481-2.959-1.835-4.396-0.824
							c-1.447,0.978-1.801,2.949-0.821,4.382C718.173,876.67,720.158,877.042,721.574,876.061z"/>
					</g>
					<g>
						<path fill="#FFFFFF" d="M732.541,953.017c1.444-0.962,1.789-2.967,0.809-4.4c-1.008-1.453-2.959-1.835-4.396-0.824
							c-1.444,0.962-1.838,2.974-0.84,4.394C729.106,953.637,731.091,954.009,732.541,953.017z"/>
					</g>
					<g>
						<path fill="#FFFFFF" d="M756.26,1004.174c1.438-1.01,1.804-2.964,0.794-4.403c-0.974-1.463-2.928-1.829-4.381-0.821
							c-1.432,0.981-1.817,2.947-0.824,4.397C752.829,1004.779,754.798,1005.148,756.26,1004.174z"/>
					</g>
					<g>
						<path fill="#FFFFFF" d="M778.86,1037.202c1.46-0.959,1.789-2.967,0.824-4.397c-0.992-1.45-2.946-1.816-4.396-0.824
							c-1.463,0.975-1.802,2.95-0.809,4.4C775.453,1037.844,777.422,1038.213,778.86,1037.202z"/>
					</g>
					<g>
						<path fill="#FFFFFF" d="M790.828,1028.069c1.45-0.993,1.817-2.947,0.827-4.413c-0.98-1.431-2.977-1.822-4.412-0.827
							c-1.447,0.978-1.789,2.967-0.824,4.397C787.442,1028.682,789.396,1029.048,790.828,1028.069z"/>
					</g>
					<g>
						<path fill="#FFFFFF" d="M777.814,976.785c1.432-0.979,1.789-2.967,0.812-4.414c-0.995-1.436-2.964-1.805-4.396-0.824
							c-1.45,0.992-1.822,2.977-0.842,4.408C774.379,977.405,776.364,977.777,777.814,976.785z"/>
					</g>
					<g>
						<path fill="#FFFFFF" d="M767.552,911.243c1.478-0.972,1.844-2.926,0.864-4.357c-0.99-1.465-2.943-1.832-4.412-0.827
							c-1.426,0.949-1.813,2.93-0.824,4.396C764.163,911.872,766.15,912.228,767.552,911.243z"/>
					</g>
					<g>
						<path fill="#FFFFFF" d="M650.648,721.683c1.465-0.989,1.853-2.971,0.83-4.427c-0.952-1.411-2.937-1.784-4.393-0.76
							c-1.426,0.95-1.795,2.919-0.834,4.363C647.261,722.298,649.231,722.667,650.648,721.683z"/>
					</g>
					<g>
						<path fill="#FFFFFF" d="M688.205,739.153c2.068-1.413,2.588-4.191,1.17-6.243c-1.371-2.042-4.18-2.568-6.212-1.165
							c-2.068,1.415-2.589,4.193-1.173,6.259C683.364,740.032,686.173,740.558,688.205,739.153z"/>
					</g>
					<g>
						<path fill="#FFFFFF" d="M742.273,852.556c2.049-1.402,2.575-4.211,1.17-6.243c-1.401-2.049-4.22-2.608-6.259-1.173
							c-2.04,1.355-2.49,4.179-1.125,6.252C737.47,853.393,740.225,853.957,742.273,852.556z"/>
					</g>
					<g>
						<path fill="#FFFFFF" d="M792.536,925.646c2.057-1.448,2.545-4.217,1.156-6.248c-1.402-2.048-4.177-2.584-6.244-1.171
							c-2.03,1.39-2.564,4.15-1.162,6.198C787.67,926.486,790.497,927.001,792.536,925.646z"/>
					</g>
					<g>
						<path fill="#FFFFFF" d="M694.861,677.352c2.028-1.374,2.554-4.183,1.162-6.198c-1.398-2.064-4.191-2.587-6.238-1.201
							c-2.034,1.404-2.557,4.198-1.142,6.265C690.02,678.23,692.81,678.769,694.861,677.352z"/>
					</g>
				</g>
				<g>
					<g>
						<polygon fill="#FFFFFF" points="743.275,907.561 730.618,889.101 729.494,889.87 741.823,907.889 736.637,933.779 
							759.782,967.605 757.739,978.505 777.833,1007.871 806.959,1013.331 807.211,1011.988 778.685,1006.608 759.224,978.167 
							761.247,967.295 738.077,933.434 						"/>
					</g>
					<g>
						<polygon fill="#FFFFFF" points="835.588,992.025 814.382,961.092 777.715,954.218 762.53,932.044 769.103,897.154 
							720.096,825.533 691.914,820.266 675.692,796.54 674.545,797.351 691.079,821.515 719.305,826.807 767.654,897.466 
							761.106,932.394 776.883,955.452 813.572,962.377 834.41,992.831 						"/>
					</g>
					<g>
						<polygon fill="#FFFFFF" points="738.136,817.221 704.922,768.661 690.497,765.956 666.427,730.819 665.304,731.589 
							689.705,767.23 704.087,769.91 736.687,817.535 727.466,866.72 757.991,911.331 751.571,945.491 788.484,999.439 
							803.728,1002.327 809.871,1011.285 811.013,1010.504 804.563,1001.078 789.297,998.216 753.042,945.23 759.461,910.99 
							728.933,866.393 						"/>
					</g>
					<g>
						<polygon fill="#FFFFFF" points="876.199,872.086 862.672,852.278 828.359,845.829 810.671,819.979 713.955,801.817 
							699.549,780.801 698.379,781.562 713.133,803.085 809.839,821.215 827.551,847.1 861.822,853.525 875.069,872.885 						"/>
					</g>
					<g>
						<polygon fill="#FFFFFF" points="829.217,940.122 809.433,911.21 789.903,907.579 746.494,844.119 744.2,845.649 
							788.251,910.067 807.806,913.733 826.3,940.76 821.65,965.566 839.198,991.231 841.464,989.682 824.566,964.928 						"/>
					</g>
					<g>
						<polygon fill="#FFFFFF" points="815.979,875.112 784.617,829.237 783.492,830.007 814.533,875.41 810.028,899.438 
							843.989,949.07 841.066,964.577 854.201,983.774 855.343,982.993 842.54,964.3 845.453,948.76 811.523,899.134 						"/>
					</g>
					<g>
						<polygon fill="#FFFFFF" points="859.328,893.21 845.461,872.943 772.386,859.243 753.152,831.193 759.728,796.113 
							713.017,727.845 716.677,708.321 705.429,691.864 703.131,693.424 713.736,708.923 710.07,728.479 756.787,796.714 
							750.205,831.825 770.698,861.755 843.82,875.464 856.409,893.863 853.476,909.51 888.044,960.031 890.322,958.499 
							856.432,908.911 						"/>
					</g>
					<g>
						<polygon fill="#FFFFFF" points="835.946,870.765 784.664,795.858 726.686,784.988 699.426,745.129 697.117,746.655 
							725.04,787.445 783.018,798.315 832.989,871.364 827.915,898.43 874.748,966.893 877.047,965.334 830.857,897.828 						"/>
					</g>
					<g>
						<polygon fill="#FFFFFF" points="736.275,707.966 718.91,682.587 717.789,683.42 734.807,708.291 729.455,736.758 
							762.78,785.482 763.935,784.718 730.929,736.481 						"/>
					</g>
					<g>
						<polygon fill="#FFFFFF" points="936.592,900.332 876.941,813.172 835.297,805.365 804.858,760.882 775.381,755.355 
							763.303,737.683 762.186,738.502 774.564,756.592 804.029,762.1 834.495,806.606 876.124,814.41 935.152,900.677 
							930.227,926.949 934.025,932.482 935.167,931.699 931.661,926.634 						"/>
					</g>
					<g>
						<polygon fill="#FFFFFF" points="957.17,865.08 906.852,791.602 894.045,789.201 866.71,749.232 778.965,732.782 
							730.876,662.503 734.184,644.856 732.809,644.614 729.392,662.841 778.133,734.017 865.909,750.473 893.243,790.44 
							906.039,792.823 955.678,865.368 953.872,875 973.572,903.771 974.695,903.003 955.346,874.723 						"/>
					</g>
					<g>
						<polygon fill="#FFFFFF" points="818.811,766.531 777.514,706.216 776.372,706.997 817.313,766.851 810.353,803.976 
							864.461,883.11 856.567,925.386 883.006,964.064 884.142,963.314 857.995,925.102 865.941,882.804 811.842,803.702 						"/>
					</g>
					<g>
						<path fill="#FFFFFF" d="M731.606,891.752c1.269-0.869,1.59-2.579,0.752-3.841c-0.868-1.27-2.608-1.596-3.877-0.727
							c-1.272,0.883-1.574,2.58-0.706,3.85C728.646,892.287,730.325,892.602,731.606,891.752z"/>
					</g>
					<g>
						<path fill="#FFFFFF" d="M676.857,799.096c1.287-0.882,1.607-2.59,0.74-3.86c-0.875-1.238-2.614-1.565-3.847-0.721
							c-1.251,0.856-1.577,2.596-0.727,3.878C673.863,799.64,675.619,799.97,676.857,799.096z"/>
					</g>
					<g>
						<path fill="#FFFFFF" d="M701.345,783.445c1.27-0.869,1.59-2.577,0.737-3.844c-0.872-1.254-2.578-1.588-3.847-0.721
							c-1.27,0.869-1.596,2.609-0.721,3.847C698.369,783.977,700.093,784.301,701.345,783.445z"/>
					</g>
					<g>
						<path fill="#FFFFFF" d="M720.184,685.655c1.23-0.828,1.58-2.532,0.703-3.835c-0.843-1.233-2.569-1.556-3.844-0.737
							c-1.27,0.868-1.567,2.63-0.696,3.883C717.214,686.236,718.899,686.52,720.184,685.655z"/>
					</g>
					<g>
						<path fill="#FFFFFF" d="M764.914,787.414c1.287-0.88,1.611-2.606,0.724-3.863c-0.838-1.262-2.56-1.601-3.847-0.721
							c-1.266,0.853-1.592,2.593-0.724,3.863C761.942,787.931,763.682,788.258,764.914,787.414z"/>
					</g>
					<g>
						<path fill="#FFFFFF" d="M764.349,740.867c1.302-0.879,1.595-2.609,0.752-3.841c-0.871-1.254-2.568-1.556-3.862-0.724
							c-1.226,0.892-1.602,2.559-0.724,3.863C761.371,741.414,763.111,741.74,764.349,740.867z"/>
					</g>
					<g>
						<path fill="#FFFFFF" d="M780.934,735.68c1.233-0.843,1.577-2.596,0.713-3.802c-0.835-1.278-2.56-1.601-3.823-0.764
							c-1.269,0.867-1.595,2.609-0.724,3.863C777.925,736.221,779.665,736.547,780.934,735.68z"/>
					</g>
					<g>
						<path fill="#FFFFFF" d="M828.712,848.329c1.235-0.859,1.559-2.583,0.685-3.823c-0.868-1.268-2.548-1.583-3.801-0.713
							c-1.284,0.866-1.602,2.56-0.777,3.806C825.684,848.883,827.425,849.209,828.712,848.329z"/>
					</g>
					<g>
						<path fill="#FFFFFF" d="M811.703,901.884c1.238-0.873,1.565-2.614,0.727-3.877c-0.871-1.254-2.611-1.58-3.862-0.724
							c-1.272,0.883-1.586,2.562-0.721,3.847C808.715,902.399,810.455,902.725,811.703,901.884z"/>
					</g>
					<g>
						<path fill="#FFFFFF" d="M721.238,828.465c1.272-0.885,1.595-2.609,0.724-3.863c-0.868-1.27-2.553-1.553-3.837-0.689
							c-1.248,0.842-1.584,2.548-0.725,3.783C718.265,828.982,719.99,829.306,721.238,828.465z"/>
					</g>
					<g>
						<path fill="#FFFFFF" d="M785.33,832.342c1.266-0.852,1.592-2.593,0.724-3.861c-0.838-1.264-2.571-1.542-3.81-0.667
							c-1.269,0.869-1.633,2.555-0.761,3.807C782.364,832.909,784.095,833.201,785.33,832.342z"/>
					</g>
					<g>
						<path fill="#FFFFFF" d="M836.542,808.585c1.248-0.84,1.571-2.565,0.733-3.828c-0.862-1.22-2.571-1.54-3.837-0.689
							c-1.233,0.845-1.593,2.595-0.758,3.793C833.542,809.16,835.306,809.444,836.542,808.585z"/>
					</g>
					<g>
						<path fill="#FFFFFF" d="M877.538,816.476c1.254-0.872,1.583-2.627,0.724-3.863c-0.871-1.252-2.612-1.579-3.847-0.721
							c-1.272,0.885-1.598,2.624-0.724,3.863C874.532,817.003,876.272,817.33,877.538,816.476z"/>
					</g>
					<g>
						<path fill="#FFFFFF" d="M734.87,646.343c1.238-0.874,1.562-2.599,0.724-3.862c-0.911-1.293-2.609-1.595-3.877-0.727
							c-1.254,0.871-1.577,2.596-0.724,3.862C731.839,646.834,733.624,647.169,734.87,646.343z"/>
					</g>
					<g>
						<path fill="#FFFFFF" d="M778.582,709.371c1.263-0.838,1.556-2.568,0.721-3.847c-0.871-1.254-2.605-1.531-3.837-0.688
							c-1.266,0.853-1.605,2.575-0.731,3.814C775.588,709.916,777.313,710.239,778.582,709.371z"/>
					</g>
					<g>
						<path fill="#FFFFFF" d="M875.572,873.658c1.269-0.867,1.628-2.617,0.727-3.877c-0.874-1.238-2.56-1.601-3.847-0.721
							c-1.22,0.862-1.546,2.602-0.703,3.834C872.617,874.164,874.357,874.49,875.572,873.658z"/>
					</g>
					<g>
						<path fill="#FFFFFF" d="M843.41,966.992c1.266-0.853,1.574-2.582,0.7-3.82c-0.868-1.268-2.554-1.633-3.805-0.776
							c-1.287,0.882-1.613,2.621-0.742,3.875C840.429,967.554,842.142,967.859,843.41,966.992z"/>
					</g>
					<g>
						<path fill="#FFFFFF" d="M812.675,806.087c1.248-0.84,1.62-2.573,0.713-3.802c-0.838-1.262-2.568-1.556-3.847-0.721
							c-1.242,0.811-1.572,2.566-0.694,3.868C809.706,806.667,811.388,806.967,812.675,806.087z"/>
					</g>
					<g>
						<path fill="#FFFFFF" d="M729.764,868.873c1.274-0.899,1.595-2.609,0.724-3.863c-0.868-1.268-2.614-1.565-3.862-0.724
							c-1.251,0.856-1.556,2.569-0.688,3.837C726.776,869.387,728.498,869.726,729.764,868.873z"/>
					</g>
					<g>
						<path fill="#FFFFFF" d="M739.324,936.053c1.238-0.873,1.549-2.617,0.721-3.847c-0.886-1.257-2.609-1.594-3.877-0.727
							c-1.233,0.843-1.595,2.609-0.721,3.847C736.318,936.58,738.058,936.906,739.324,936.053z"/>
					</g>
					<g>
						<path fill="#FFFFFF" d="M760.016,980.686c1.266-0.853,1.572-2.566,0.716-3.817c-0.843-1.233-2.545-1.598-3.832-0.718
							c-1.266,0.853-1.592,2.593-0.731,3.814C757.022,981.23,758.763,981.556,760.016,980.686z"/>
					</g>
					<g>
						<path fill="#FFFFFF" d="M779.772,1009.577c1.29-0.896,1.562-2.599,0.724-3.863c-0.874-1.238-2.575-1.604-3.862-0.724
							c-1.26,0.824-1.593,2.595-0.724,3.863C776.784,1010.092,778.509,1010.415,779.772,1009.577z"/>
					</g>
					<g>
						<path fill="#FFFFFF" d="M790.249,1001.571c1.223-0.877,1.574-2.58,0.703-3.834c-0.868-1.27-2.611-1.58-3.859-0.74
							c-1.269,0.869-1.559,2.583-0.721,3.847C787.24,1002.113,788.962,1002.451,790.249,1001.571z"/>
					</g>
					<g>
						<path fill="#FFFFFF" d="M778.843,956.798c1.279-0.835,1.574-2.58,0.709-3.864c-0.856-1.251-2.581-1.574-3.85-0.707
							c-1.248,0.84-1.58,2.612-0.721,3.847C775.852,957.328,777.592,957.654,778.843,956.798z"/>
					</g>
					<g>
						<path fill="#FFFFFF" d="M769.915,899.565c1.278-0.835,1.602-2.559,0.731-3.813c-0.871-1.254-2.575-1.604-3.847-0.721
							c-1.251,0.856-1.574,2.58-0.715,3.816C766.948,900.132,768.664,900.421,769.915,899.565z"/>
					</g>
					<g>
						<path fill="#FFFFFF" d="M667.832,734.039c1.262-0.838,1.589-2.579,0.751-3.841c-0.901-1.26-2.601-1.548-3.871-0.679
							c-1.262,0.838-1.601,2.561-0.727,3.799C664.855,734.57,666.563,734.906,667.832,734.039z"/>
					</g>
					<g>
						<path fill="#FFFFFF" d="M700.629,749.337c1.782-1.247,2.237-3.673,0.993-5.471c-1.2-1.773-3.625-2.244-5.437-1.003
							c-1.776,1.215-2.237,3.673-1.034,5.431C696.403,750.125,698.818,750.562,700.629,749.337z"/>
					</g>
					<g>
						<path fill="#FFFFFF" d="M747.811,848.3c1.81-1.224,2.265-3.651,1.046-5.412c-1.249-1.768-3.649-2.281-5.465-1.025
							c-1.758,1.203-2.229,3.628-0.973,5.442C743.608,849.06,746.035,849.515,747.811,848.3z"/>
					</g>
					<g>
						<path fill="#FFFFFF" d="M791.694,912.102c1.776-1.216,2.244-3.625,1.047-5.414c-1.261-1.785-3.673-2.237-5.462-1.04
							c-1.782,1.247-2.253,3.672-1.037,5.448C787.469,912.891,789.902,913.315,791.694,912.102z"/>
					</g>
					<g>
						<path fill="#FFFFFF" d="M706.419,695.352c1.789-1.197,2.231-3.643,1.013-5.404c-1.213-1.792-3.64-2.247-5.444-1.052
							c-1.768,1.249-2.22,3.661-1.01,5.468C702.218,696.097,704.64,696.583,706.419,695.352z"/>
					</g>
				</g>
			</g>
			<g>
				<path fill="#FFFFFF" d="M783.614,1004.34c2.003,2.968,1.212,7.023-1.697,9.052c-2.973,2.035-7.052,1.286-9.098-1.706
					c-1.992-2.948-1.23-7.009,1.725-9.031C777.483,1000.63,781.592,1001.386,783.614,1004.34z M773.759,1011.057
					c1.696,2.499,5.039,3.126,7.517,1.458c2.453-1.705,3.088-5.094,1.381-7.532c-1.675-2.447-5.033-3.076-7.495-1.405
					C772.701,1005.234,772.097,1008.629,773.759,1011.057z"/>
			</g>
			<g>
				<path fill="#FFFFFF" d="M763.602,975.132c2.065,2.979,1.252,7.062-1.697,9.052c-2.955,2.022-7.031,1.258-9.052-1.697
					c-2.028-2.924-1.261-7.015,1.697-9.052C757.504,971.413,761.58,972.177,763.602,975.132z M753.776,981.854
					c1.669,2.478,5.055,3.129,7.49,1.437c2.466-1.688,3.08-5.049,1.387-7.484c-1.635-2.486-5.024-3.122-7.48-1.402
					C752.729,976.064,752.102,979.408,753.776,981.854z"/>
			</g>
			<g>
				<path fill="#FFFFFF" d="M742.986,930.767c2.037,2.958,1.27,7.049-1.7,9.068c-2.952,2.006-7.013,1.245-9.037-1.694
					c-2.037-2.958-1.27-7.049,1.7-9.068C736.9,927.066,740.961,927.827,742.986,930.767z M733.164,937.474
					c1.681,2.496,5.055,3.129,7.502,1.453c2.483-1.699,3.079-5.047,1.39-7.498c-1.653-2.475-5.012-3.105-7.495-1.405
					C732.113,931.699,731.486,935.041,733.164,937.474z"/>
			</g>
			<g>
				<path fill="#FFFFFF" d="M735.131,886.266c2.049,2.976,1.261,7.015-1.694,9.037c-2.958,2.038-7.006,1.295-9.052-1.697
					c-2.022-2.955-1.248-6.996,1.722-9.015C729.061,882.568,733.113,883.295,735.131,886.266z M725.322,892.991
					c1.69,2.449,5.027,3.107,7.495,1.405c2.462-1.671,3.065-5.052,1.405-7.495c-1.669-2.478-5.045-3.095-7.495-1.405
					C724.265,887.167,723.647,890.544,725.322,892.991z"/>
			</g>
			<g>
				<path fill="#FFFFFF" d="M782.778,950.725c1.998,2.998,1.24,7.043-1.715,9.065c-2.952,2.006-7.034,1.274-9.052-1.697
					c-2.022-2.955-1.237-7.059,1.715-9.065C776.665,947.005,780.741,947.769,782.778,950.725z M772.932,957.477
					c1.675,2.447,5.048,3.079,7.495,1.405c2.493-1.665,3.08-5.049,1.393-7.514c-1.656-2.459-5.03-3.092-7.48-1.402
					C771.89,951.655,771.279,955.001,772.932,957.477z"/>
			</g>
			<g>
				<path fill="#FFFFFF" d="M680.293,793.577c2.067,2.964,1.271,7.049-1.7,9.068c-2.952,2.006-7.012,1.245-9.052-1.697
					c-2.022-2.955-1.255-7.046,1.7-9.068C674.211,789.861,678.271,790.622,680.293,793.577z M670.484,800.303
					c1.671,2.462,5.046,3.095,7.49,1.436c2.484-1.699,3.079-5.049,1.39-7.498c-1.653-2.475-5.012-3.105-7.495-1.405
					C669.421,794.51,668.794,797.853,670.484,800.303z"/>
			</g>
			<g>
				<path fill="#FFFFFF" d="M879.118,867.64c2.05,2.975,1.255,7.046-1.7,9.066c-2.952,2.006-7.003,1.279-9.052-1.697
					c-2.022-2.953-1.27-7.049,1.684-9.069C873.018,863.936,877.094,864.7,879.118,867.64z M869.306,874.379
					c1.674,2.448,5.048,3.081,7.495,1.405c2.465-1.687,3.064-5.05,1.408-7.51c-1.69-2.451-5.048-3.081-7.495-1.405
					C868.248,868.557,867.607,871.896,869.306,874.379z"/>
			</g>
			<g>
				<path fill="#FFFFFF" d="M881.414,810.045c2.046,2.992,1.27,7.049-1.697,9.052c-2.94,2.025-7.006,1.295-9.052-1.697
					c-2.009-2.937-1.242-7.027,1.712-9.049C875.332,806.328,879.408,807.092,881.414,810.045z M871.617,816.789
					c1.656,2.459,5.045,3.095,7.477,1.418c2.465-1.687,3.083-5.064,1.408-7.511c-1.687-2.465-5.069-3.052-7.48-1.402
					C870.545,810.961,869.93,814.324,871.617,816.789z"/>
			</g>
			<g>
				<path fill="#FFFFFF" d="M768.101,734.428c2.019,2.969,1.242,7.027-1.718,9.079c-2.949,1.992-7.01,1.231-9.052-1.697
					c-2.019-2.969-1.258-7.03,1.697-9.052C762.003,730.708,766.079,731.473,768.101,734.428z M758.27,741.18
					c1.659,2.445,5.018,3.075,7.48,1.402c2.468-1.702,3.082-5.063,1.408-7.509c-1.699-2.484-5.042-3.11-7.483-1.388
					C757.213,735.357,756.583,738.715,758.27,741.18z"/>
			</g>
			<g>
				<path fill="#FFFFFF" d="M738.042,640.38c2.022,2.955,1.255,7.046-1.703,9.083c-2.925,2.027-7.016,1.26-9.052-1.697
					c-2.019-2.97-1.252-7.061,1.703-9.083C731.953,636.695,736.044,637.462,738.042,640.38z M728.205,647.085
					c1.697,2.499,5.054,3.128,7.519,1.441c2.451-1.69,3.078-5.033,1.405-7.495c-1.687-2.465-5.044-3.095-7.494-1.405
					C727.169,641.313,726.542,644.656,728.205,647.085z"/>
			</g>
			<g>
				<path fill="#FFFFFF" d="M782.066,703.008c2.047,2.991,1.28,7.082-1.669,9.073c-2.958,2.037-7.024,1.306-9.052-1.697
					c-2.028-2.924-1.285-7.052,1.654-9.076C775.953,699.286,780.072,700.074,782.066,703.008z M772.25,709.764
					c1.69,2.45,5.048,3.08,7.495,1.405c2.426-1.647,3.095-5.045,1.405-7.495c-1.672-2.462-5.054-3.049-7.495-1.405
					C771.224,703.946,770.551,707.281,772.25,709.764z"/>
			</g>
			<g>
				<path fill="#FFFFFF" d="M723.64,680.282c1.709,2.517,1.06,5.982-1.478,7.719c-2.508,1.742-5.987,1.09-7.71-1.445
					c-1.705-2.532-1.071-6,1.445-7.709C718.435,677.11,721.916,677.762,723.64,680.282z M715.25,686.01
					c1.442,2.087,4.281,2.62,6.365,1.193c2.085-1.427,2.654-4.29,1.19-6.35c-1.43-2.149-4.262-2.632-6.362-1.209
					C714.378,681.058,713.824,683.925,715.25,686.01z"/>
			</g>
			<g>
				<path fill="#FFFFFF" d="M670.581,728.644c1.72,2.536,1.068,6.016-1.451,7.739c-2.545,1.688-5.985,1.075-7.725-1.448
					c-1.708-2.516-1.056-5.996,1.437-7.742C665.389,725.491,668.839,726.137,670.581,728.644z M662.203,734.39
					c1.426,2.085,4.296,2.623,6.381,1.196c2.119-1.436,2.62-4.281,1.199-6.397c-1.429-2.069-4.299-2.607-6.394-1.215
					C661.312,729.451,660.78,732.29,662.203,734.39z"/>
			</g>
			<g>
				<path fill="#FFFFFF" d="M703.907,777.953c1.725,2.519,1.078,5.969-1.465,7.737c-2.515,1.694-5.965,1.047-7.71-1.445
					c-1.691-2.529-1.038-6.01,1.467-7.736C698.73,774.801,702.196,775.451,703.907,777.953z M695.546,783.701
					c1.419,2.036,4.281,2.62,6.365,1.193c2.117-1.436,2.623-4.296,1.199-6.397c-1.426-2.085-4.267-2.617-6.365-1.193
					C694.656,778.746,694.121,781.6,695.546,783.701z"/>
			</g>
			<g>
				<path fill="#FFFFFF" d="M797.328,904.215c2.723,4.019,1.698,9.483-2.289,12.212c-3.97,2.717-9.435,1.692-12.167-2.281
					c-2.729-3.987-1.704-9.452,2.305-12.209C789.147,899.221,794.612,900.245,797.328,904.215z M784.105,913.303
					c2.26,3.285,6.791,4.149,10.121,1.897c3.284-2.26,4.119-6.797,1.864-10.112c-2.257-3.299-6.776-4.146-10.063-1.87
					C782.698,905.469,781.851,909.989,784.105,913.303z"/>
			</g>
			<g>
				<path fill="#FFFFFF" d="M753.371,839.971c2.726,4.004,1.698,9.483-2.274,12.216c-3.985,2.712-9.465,1.685-12.197-2.287
					c-2.729-3.989-1.701-9.468,2.32-12.207C745.174,834.975,750.654,836.003,753.371,839.971z M740.15,849.045
					c2.26,3.285,6.804,4.167,10.09,1.892c3.312-2.24,4.149-6.792,1.892-10.09c-2.255-3.314-6.788-4.164-10.09-1.892
					C738.727,841.208,737.877,845.743,740.15,849.045z"/>
			</g>
			<g>
				<path fill="#FFFFFF" d="M705.523,741.01c2.732,3.973,1.702,9.468-2.281,12.166c-3.99,2.744-9.471,1.716-12.182-2.284
					c-2.734-3.957-1.707-9.436,2.281-12.166C697.315,735.995,702.811,737.026,705.523,741.01z M692.309,750.052
					c2.246,3.282,6.763,4.129,10.087,1.907c3.314-2.254,4.164-6.789,1.87-10.141c-2.261-3.285-6.779-4.132-10.061-1.886
					C690.871,742.213,690.023,746.732,692.309,750.052z"/>
			</g>
			<g>
				<path fill="#FFFFFF" d="M711.912,687.122c2.762,3.979,1.705,9.453-2.287,12.197c-3.952,2.704-9.446,1.674-12.166-2.281
					c-2.725-4.003-1.684-9.481,2.287-12.197C703.719,682.11,709.184,683.134,711.912,687.122z M698.698,696.164
					c2.258,3.299,6.789,4.164,10.103,1.91c3.317-2.27,4.143-6.84,1.879-10.109c-2.27-3.317-6.79-4.149-10.103-1.91
					C697.297,688.301,696.428,692.847,698.698,696.164z"/>
			</g>
		</g>
	</g>
</g>
<path fill="#2D7493" d="M417.441,827.073c-64.769,88.828-103.505,196.609-134.544,301.119
	c-20.842,70.175-37.999,141.75-50.523,213.895c-0.425,2.447-0.845,4.896-1.237,7.348c0.264-1.653,11.661-11.102,11.972-11.407
	c9.501-9.312,18.931-18.697,28.338-28.104c9.407-9.407,18.791-18.837,28.104-28.338c0.901-0.92,11.012-9.497,11.407-11.972
	c8.876-55.617,21.829-110.789,36.115-165.225c27.704-105.564,63.03-211.384,117.521-306.395
	c10.415-18.16,21.819-35.748,34.174-52.646c2.545-1.612,5.08-3.244,7.319-5.188c-0.8,0.695-1.242,1.077-1.489,1.288
	c0.163-0.137,0.372-0.311,0.548-0.45c1.163-0.916,2.409-1.723,3.672-2.494c-14.461,7.479-28.413,18.408-40.78,29.948
	C449.997,787.043,432.782,806.034,417.441,827.073z"/>
</svg>
